STARTFONT 2.1
COMMENT
COMMENT Converted from OpenType font "GenBasB.ttf" by "otf2bdf 3.0".
COMMENT
FONT -FreeType-Gentium Basic-Bold-R-Normal--18-180-72-72-P-89-ISO10646-1
SIZE 18 72 72
FONTBOUNDINGBOX 27 26 -9 -6
STARTPROPERTIES 19
FOUNDRY "FreeType"
FAMILY_NAME "Gentium Basic"
WEIGHT_NAME "Bold"
SLANT "R"
SETWIDTH_NAME "Normal"
ADD_STYLE_NAME ""
PIXEL_SIZE 18
POINT_SIZE 180
RESOLUTION_X 72
RESOLUTION_Y 72
SPACING "P"
AVERAGE_WIDTH 89
CHARSET_REGISTRY "ISO10646"
CHARSET_ENCODING "1"
FONT_ASCENT 15
FONT_DESCENT 5
COPYRIGHT "Copyright (c) SIL International, 2003-2008."
_OTF_FONTFILE "GenBasB.ttf"
_OTF_PSNAME "GentiumBasic-Bold"
ENDPROPERTIES
CHARS 704
STARTCHAR 0020
ENCODING 32
SWIDTH 222 0
DWIDTH 4 0
BBX 0 0 0 0
BITMAP
ENDCHAR
STARTCHAR 0021
ENCODING 33
SWIDTH 333 0
DWIDTH 6 0
BBX 3 14 1 -1
BITMAP
60
E0
60
60
60
60
60
40
40
40
00
E0
E0
C0
ENDCHAR
STARTCHAR 0022
ENCODING 34
SWIDTH 444 0
DWIDTH 8 0
BBX 6 6 1 7
BITMAP
6C
EC
CC
4C
4C
4C
ENDCHAR
STARTCHAR 0023
ENCODING 35
SWIDTH 500 0
DWIDTH 9 0
BBX 8 10 1 1
BITMAP
1A
12
16
7F
24
24
FE
48
48
D8
ENDCHAR
STARTCHAR 0024
ENCODING 36
SWIDTH 500 0
DWIDTH 9 0
BBX 7 14 1 -2
BITMAP
10
10
7E
96
90
F0
78
1E
12
92
D2
FC
10
10
ENDCHAR
STARTCHAR 0025
ENCODING 37
SWIDTH 722 0
DWIDTH 13 0
BBX 11 11 1 0
BITMAP
7040
9080
8980
8B00
9200
55C0
2A20
1A20
3220
2220
41C0
ENDCHAR
STARTCHAR 0026
ENCODING 38
SWIDTH 666 0
DWIDTH 12 0
BBX 11 13 1 0
BITMAP
1C00
6600
4600
4600
7C00
7800
71E0
F880
FC80
DE80
CF00
C380
7DE0
ENDCHAR
STARTCHAR 0027
ENCODING 39
SWIDTH 277 0
DWIDTH 5 0
BBX 3 6 1 7
BITMAP
60
E0
C0
40
40
40
ENDCHAR
STARTCHAR 0028
ENCODING 40
SWIDTH 333 0
DWIDTH 6 0
BBX 4 17 1 -3
BITMAP
10
20
60
40
40
C0
C0
C0
C0
C0
C0
C0
C0
40
60
20
10
ENDCHAR
STARTCHAR 0029
ENCODING 41
SWIDTH 333 0
DWIDTH 6 0
BBX 4 17 1 -3
BITMAP
80
40
60
20
30
30
30
30
30
30
30
30
20
20
60
40
80
ENDCHAR
STARTCHAR 002A
ENCODING 42
SWIDTH 444 0
DWIDTH 8 0
BBX 6 8 1 6
BITMAP
30
B0
FC
78
78
FC
34
30
ENDCHAR
STARTCHAR 002B
ENCODING 43
SWIDTH 444 0
DWIDTH 8 0
BBX 7 6 0 2
BITMAP
10
10
10
FE
10
10
ENDCHAR
STARTCHAR 002C
ENCODING 44
SWIDTH 277 0
DWIDTH 5 0
BBX 3 5 1 -3
BITMAP
60
E0
60
40
C0
ENDCHAR
STARTCHAR 002D
ENCODING 45
SWIDTH 333 0
DWIDTH 6 0
BBX 6 1 0 4
BITMAP
FC
ENDCHAR
STARTCHAR 002E
ENCODING 46
SWIDTH 277 0
DWIDTH 5 0
BBX 3 3 1 -1
BITMAP
E0
E0
C0
ENDCHAR
STARTCHAR 002F
ENCODING 47
SWIDTH 500 0
DWIDTH 9 0
BBX 8 17 0 -3
BITMAP
03
03
02
06
06
04
0C
0C
18
18
10
30
30
20
60
40
C0
ENDCHAR
STARTCHAR 0030
ENCODING 48
SWIDTH 500 0
DWIDTH 9 0
BBX 7 11 1 0
BITMAP
38
4C
46
C6
C6
C6
C6
C6
C4
64
38
ENDCHAR
STARTCHAR 0031
ENCODING 49
SWIDTH 500 0
DWIDTH 9 0
BBX 7 11 1 0
BITMAP
18
F8
18
18
18
18
18
18
18
18
7E
ENDCHAR
STARTCHAR 0032
ENCODING 50
SWIDTH 500 0
DWIDTH 9 0
BBX 7 11 1 0
BITMAP
3C
66
66
06
04
08
10
22
42
7E
FE
ENDCHAR
STARTCHAR 0033
ENCODING 51
SWIDTH 444 0
DWIDTH 8 0
BBX 7 11 0 0
BITMAP
3C
66
66
06
08
1C
06
06
06
8C
78
ENDCHAR
STARTCHAR 0034
ENCODING 52
SWIDTH 444 0
DWIDTH 8 0
BBX 7 11 0 0
BITMAP
04
0C
0C
14
34
24
44
7E
84
04
1E
ENDCHAR
STARTCHAR 0035
ENCODING 53
SWIDTH 500 0
DWIDTH 9 0
BBX 7 11 1 0
BITMAP
7E
7C
40
40
7C
86
06
06
06
86
7C
ENDCHAR
STARTCHAR 0036
ENCODING 54
SWIDTH 500 0
DWIDTH 9 0
BBX 7 11 1 0
BITMAP
0C
30
60
40
FC
C6
C6
C6
C6
64
38
ENDCHAR
STARTCHAR 0037
ENCODING 55
SWIDTH 500 0
DWIDTH 9 0
BBX 7 11 1 0
BITMAP
FE
FE
86
04
04
08
08
18
30
30
60
ENDCHAR
STARTCHAR 0038
ENCODING 56
SWIDTH 555 0
DWIDTH 10 0
BBX 8 11 1 0
BITMAP
3C
66
66
66
7C
3E
47
C3
C3
C3
3C
ENDCHAR
STARTCHAR 0039
ENCODING 57
SWIDTH 500 0
DWIDTH 9 0
BBX 7 11 1 0
BITMAP
38
44
C6
C6
C6
C6
7E
04
0C
18
E0
ENDCHAR
STARTCHAR 003A
ENCODING 58
SWIDTH 277 0
DWIDTH 5 0
BBX 3 9 1 -1
BITMAP
E0
E0
C0
00
00
00
E0
E0
C0
ENDCHAR
STARTCHAR 003B
ENCODING 59
SWIDTH 277 0
DWIDTH 5 0
BBX 3 11 1 -3
BITMAP
E0
E0
C0
00
00
00
60
E0
60
40
C0
ENDCHAR
STARTCHAR 003C
ENCODING 60
SWIDTH 444 0
DWIDTH 8 0
BBX 8 6 0 2
BITMAP
03
1E
70
F0
1E
07
ENDCHAR
STARTCHAR 003D
ENCODING 61
SWIDTH 444 0
DWIDTH 8 0
BBX 8 4 0 3
BITMAP
7F
80
00
FF
ENDCHAR
STARTCHAR 003E
ENCODING 62
SWIDTH 444 0
DWIDTH 8 0
BBX 8 6 0 2
BITMAP
60
BC
0F
0E
78
C0
ENDCHAR
STARTCHAR 003F
ENCODING 63
SWIDTH 444 0
DWIDTH 8 0
BBX 7 14 1 -1
BITMAP
3C
C6
C6
86
0C
08
10
20
20
20
00
38
38
38
ENDCHAR
STARTCHAR 0040
ENCODING 64
SWIDTH 888 0
DWIDTH 16 0
BBX 14 16 1 -4
BITMAP
07C0
1FF0
3038
4008
4744
88C4
98C4
98C4
98C4
98C8
9FF8
CEE0
C020
7070
3FC0
1F80
ENDCHAR
STARTCHAR 0041
ENCODING 65
SWIDTH 611 0
DWIDTH 11 0
BBX 11 11 0 0
BITMAP
0600
0E00
0E00
0B00
1300
1300
3F80
2180
21C0
60C0
F1E0
ENDCHAR
STARTCHAR 0042
ENCODING 66
SWIDTH 611 0
DWIDTH 11 0
BBX 9 11 1 0
BITMAP
FE00
6300
6300
6300
7E00
6380
6180
6180
6180
6180
FE00
ENDCHAR
STARTCHAR 0043
ENCODING 67
SWIDTH 555 0
DWIDTH 10 0
BBX 8 11 1 0
BITMAP
1F
63
40
C0
C0
C0
C0
C0
C0
61
3E
ENDCHAR
STARTCHAR 0044
ENCODING 68
SWIDTH 611 0
DWIDTH 11 0
BBX 9 11 1 0
BITMAP
FE00
6300
6100
6180
6180
6180
6180
6180
6100
6300
FC00
ENDCHAR
STARTCHAR 0045
ENCODING 69
SWIDTH 500 0
DWIDTH 9 0
BBX 9 11 0 0
BITMAP
FF00
3100
3100
3000
3000
3F00
3000
3000
3080
3080
FF80
ENDCHAR
STARTCHAR 0046
ENCODING 70
SWIDTH 500 0
DWIDTH 9 0
BBX 9 11 0 0
BITMAP
FF80
3100
3100
3000
3000
3E00
3000
3000
3000
3000
F800
ENDCHAR
STARTCHAR 0047
ENCODING 71
SWIDTH 611 0
DWIDTH 11 0
BBX 11 11 0 0
BITMAP
0FC0
31C0
4000
C000
C000
C000
C1E0
C0C0
40C0
70C0
1F80
ENDCHAR
STARTCHAR 0048
ENCODING 72
SWIDTH 666 0
DWIDTH 12 0
BBX 10 11 1 0
BITMAP
F3C0
6180
6180
6180
6180
7F80
6180
6180
6180
6180
F3C0
ENDCHAR
STARTCHAR 0049
ENCODING 73
SWIDTH 333 0
DWIDTH 6 0
BBX 4 11 1 0
BITMAP
F0
60
60
60
60
60
60
60
60
60
F0
ENDCHAR
STARTCHAR 004A
ENCODING 74
SWIDTH 333 0
DWIDTH 6 0
BBX 7 14 -2 -3
BITMAP
3E
0C
0C
0C
0C
0C
0C
0C
0C
0C
0C
08
88
F0
ENDCHAR
STARTCHAR 004B
ENCODING 75
SWIDTH 611 0
DWIDTH 11 0
BBX 10 11 1 0
BITMAP
F3C0
6300
6600
6C00
6800
7800
6C00
6600
6700
6380
F1C0
ENDCHAR
STARTCHAR 004C
ENCODING 76
SWIDTH 500 0
DWIDTH 9 0
BBX 8 11 1 0
BITMAP
F0
60
60
60
60
60
60
60
61
61
FF
ENDCHAR
STARTCHAR 004D
ENCODING 77
SWIDTH 833 0
DWIDTH 15 0
BBX 15 11 0 0
BITMAP
701C
3838
3838
3878
2C58
2C58
26D8
2698
2398
2318
F33E
ENDCHAR
STARTCHAR 004E
ENCODING 78
SWIDTH 666 0
DWIDTH 12 0
BBX 10 11 1 0
BITMAP
E1C0
6080
7080
7880
5C80
4C80
4680
4780
4380
4180
E180
ENDCHAR
STARTCHAR 004F
ENCODING 79
SWIDTH 611 0
DWIDTH 11 0
BBX 10 11 0 0
BITMAP
1E00
2180
4080
C0C0
C0C0
C0C0
C0C0
C0C0
4080
6100
1E00
ENDCHAR
STARTCHAR 0050
ENCODING 80
SWIDTH 555 0
DWIDTH 10 0
BBX 8 11 1 0
BITMAP
FE
63
63
63
62
7C
60
60
60
60
F0
ENDCHAR
STARTCHAR 0051
ENCODING 81
SWIDTH 611 0
DWIDTH 11 0
BBX 12 14 0 -3
BITMAP
1E00
2180
4080
C0C0
C0C0
C0C0
C0C0
C0C0
4080
6100
1E00
0390
01F0
0060
ENDCHAR
STARTCHAR 0052
ENCODING 82
SWIDTH 611 0
DWIDTH 11 0
BBX 10 11 1 0
BITMAP
FE00
6300
6300
6300
6200
7C00
6400
6600
6300
6380
F1C0
ENDCHAR
STARTCHAR 0053
ENCODING 83
SWIDTH 500 0
DWIDTH 9 0
BBX 7 11 1 0
BITMAP
3E
C6
80
C0
70
3C
06
02
82
C4
F8
ENDCHAR
STARTCHAR 0054
ENCODING 84
SWIDTH 555 0
DWIDTH 10 0
BBX 10 11 0 0
BITMAP
FFC0
8C40
8C40
0C00
0C00
0C00
0C00
0C00
0C00
0C00
1E00
ENDCHAR
STARTCHAR 0055
ENCODING 85
SWIDTH 666 0
DWIDTH 12 0
BBX 10 11 1 0
BITMAP
F1C0
6080
6080
6080
6080
6080
6080
6080
6080
3100
1E00
ENDCHAR
STARTCHAR 0056
ENCODING 86
SWIDTH 666 0
DWIDTH 12 0
BBX 12 11 0 0
BITMAP
F8F0
7040
3040
3080
1880
1980
1D00
0D00
0F00
0600
0600
ENDCHAR
STARTCHAR 0057
ENCODING 87
SWIDTH 833 0
DWIDTH 15 0
BBX 15 11 0 0
BITMAP
F11E
6184
318C
33C8
32C8
32C8
1C78
1C70
1C30
1830
0830
ENDCHAR
STARTCHAR 0058
ENCODING 88
SWIDTH 611 0
DWIDTH 11 0
BBX 11 11 0 0
BITMAP
F9E0
3080
3980
1F00
0E00
0600
0F00
1B00
3180
21C0
F3E0
ENDCHAR
STARTCHAR 0059
ENCODING 89
SWIDTH 611 0
DWIDTH 11 0
BBX 10 11 1 0
BITMAP
E3C0
7180
3100
3B00
1A00
0E00
0C00
0C00
0C00
0C00
1E00
ENDCHAR
STARTCHAR 005A
ENCODING 90
SWIDTH 555 0
DWIDTH 10 0
BBX 9 11 0 0
BITMAP
7F80
4300
4700
0600
0E00
0C00
1800
3800
3080
7080
FF80
ENDCHAR
STARTCHAR 005B
ENCODING 91
SWIDTH 333 0
DWIDTH 6 0
BBX 4 17 1 -3
BITMAP
F0
80
80
80
80
80
80
80
80
80
80
80
80
80
80
80
F0
ENDCHAR
STARTCHAR 005C
ENCODING 92
SWIDTH 444 0
DWIDTH 8 0
BBX 8 17 0 -3
BITMAP
C0
40
60
20
30
30
10
18
18
08
0C
04
06
06
02
03
03
ENDCHAR
STARTCHAR 005D
ENCODING 93
SWIDTH 333 0
DWIDTH 6 0
BBX 4 17 1 -3
BITMAP
F0
10
10
10
10
10
10
10
10
10
10
10
10
10
10
10
F0
ENDCHAR
STARTCHAR 005E
ENCODING 94
SWIDTH 500 0
DWIDTH 9 0
BBX 7 9 1 5
BITMAP
10
30
38
28
4C
4C
44
86
82
ENDCHAR
STARTCHAR 005F
ENCODING 95
SWIDTH 500 0
DWIDTH 9 0
BBX 8 1 0 -2
BITMAP
FF
ENDCHAR
STARTCHAR 0060
ENCODING 96
SWIDTH 333 0
DWIDTH 6 0
BBX 4 4 0 9
BITMAP
C0
60
20
10
ENDCHAR
STARTCHAR 0061
ENCODING 97
SWIDTH 500 0
DWIDTH 9 0
BBX 8 8 1 0
BITMAP
3C
66
C6
1E
66
C6
CF
76
ENDCHAR
STARTCHAR 0062
ENCODING 98
SWIDTH 555 0
DWIDTH 10 0
BBX 9 14 0 0
BITMAP
6000
E000
6000
6000
6000
6000
6700
7F80
7080
6080
6080
6100
6100
3E00
ENDCHAR
STARTCHAR 0063
ENCODING 99
SWIDTH 444 0
DWIDTH 8 0
BBX 7 8 1 0
BITMAP
3E
46
C4
C0
C0
C0
42
7C
ENDCHAR
STARTCHAR 0064
ENCODING 100
SWIDTH 555 0
DWIDTH 10 0
BBX 9 14 1 0
BITMAP
0300
0700
0300
0300
0300
0300
3F00
4300
C300
C300
C300
C300
7F80
3B00
ENDCHAR
STARTCHAR 0065
ENCODING 101
SWIDTH 500 0
DWIDTH 9 0
BBX 7 8 1 0
BITMAP
3C
46
C6
FE
C0
C0
62
3C
ENDCHAR
STARTCHAR 0066
ENCODING 102
SWIDTH 333 0
DWIDTH 6 0
BBX 7 13 1 0
BITMAP
1E
24
60
60
60
FC
60
60
60
60
60
60
F8
ENDCHAR
STARTCHAR 0067
ENCODING 103
SWIDTH 555 0
DWIDTH 10 0
BBX 10 12 0 -4
BITMAP
3EC0
C100
8100
C100
3E00
7000
FE00
FF80
E380
C080
C100
3E00
ENDCHAR
STARTCHAR 0068
ENCODING 104
SWIDTH 555 0
DWIDTH 10 0
BBX 9 14 1 0
BITMAP
6000
E000
6000
6000
6000
6000
6600
7F00
7300
6300
6300
6300
6300
F780
ENDCHAR
STARTCHAR 0069
ENCODING 105
SWIDTH 333 0
DWIDTH 6 0
BBX 4 12 1 0
BITMAP
30
70
00
00
60
E0
60
60
60
60
60
F0
ENDCHAR
STARTCHAR 006A
ENCODING 106
SWIDTH 277 0
DWIDTH 5 0
BBX 7 16 -3 -4
BITMAP
0E
0E
00
00
1C
0C
0C
0C
0C
0C
0C
0C
0C
8C
F8
E0
ENDCHAR
STARTCHAR 006B
ENCODING 107
SWIDTH 555 0
DWIDTH 10 0
BBX 9 14 1 0
BITMAP
6000
E000
6000
6000
6000
6000
6780
6600
6C00
7800
6C00
6600
6700
F380
ENDCHAR
STARTCHAR 006C
ENCODING 108
SWIDTH 277 0
DWIDTH 5 0
BBX 4 14 1 0
BITMAP
60
E0
60
60
60
60
60
60
60
60
60
60
60
F0
ENDCHAR
STARTCHAR 006D
ENCODING 109
SWIDTH 833 0
DWIDTH 15 0
BBX 14 8 1 0
BITMAP
6E70
FFF8
6318
6318
6318
6318
6318
F7BC
ENDCHAR
STARTCHAR 006E
ENCODING 110
SWIDTH 555 0
DWIDTH 10 0
BBX 9 8 1 0
BITMAP
6E00
FF00
7300
6300
6300
6300
6300
F780
ENDCHAR
STARTCHAR 006F
ENCODING 111
SWIDTH 500 0
DWIDTH 9 0
BBX 7 8 1 0
BITMAP
38
44
C6
C6
C6
C6
44
38
ENDCHAR
STARTCHAR 0070
ENCODING 112
SWIDTH 555 0
DWIDTH 10 0
BBX 8 12 1 -4
BITMAP
6E
FF
61
61
61
61
62
7C
60
60
60
F0
ENDCHAR
STARTCHAR 0071
ENCODING 113
SWIDTH 555 0
DWIDTH 10 0
BBX 9 12 1 -4
BITMAP
3D00
4300
C300
C300
C300
C300
7F00
3B00
0300
0300
0300
0780
ENDCHAR
STARTCHAR 0072
ENCODING 114
SWIDTH 444 0
DWIDTH 8 0
BBX 8 8 0 0
BITMAP
77
FF
32
32
30
30
30
F8
ENDCHAR
STARTCHAR 0073
ENCODING 115
SWIDTH 444 0
DWIDTH 8 0
BBX 6 8 1 0
BITMAP
F0
98
90
F0
3C
84
C4
F8
ENDCHAR
STARTCHAR 0074
ENCODING 116
SWIDTH 388 0
DWIDTH 7 0
BBX 6 11 0 0
BITMAP
20
60
60
FC
60
60
60
60
64
7C
30
ENDCHAR
STARTCHAR 0075
ENCODING 117
SWIDTH 555 0
DWIDTH 10 0
BBX 10 8 0 0
BITMAP
E380
6180
6180
6180
6180
6180
7FC0
3980
ENDCHAR
STARTCHAR 0076
ENCODING 118
SWIDTH 500 0
DWIDTH 9 0
BBX 9 8 0 0
BITMAP
F380
6100
3300
3200
1E00
1C00
1C00
0800
ENDCHAR
STARTCHAR 0077
ENCODING 119
SWIDTH 722 0
DWIDTH 13 0
BBX 13 8 0 0
BITMAP
F238
6310
3320
35A0
35A0
18E0
18C0
18C0
ENDCHAR
STARTCHAR 0078
ENCODING 120
SWIDTH 500 0
DWIDTH 9 0
BBX 9 8 0 0
BITMAP
FB80
7300
3E00
1C00
1C00
1600
2300
F780
ENDCHAR
STARTCHAR 0079
ENCODING 121
SWIDTH 500 0
DWIDTH 9 0
BBX 10 12 -1 -4
BITMAP
79C0
3080
1980
1900
0F00
0E00
0E00
0600
0400
0C00
7800
F000
ENDCHAR
STARTCHAR 007A
ENCODING 122
SWIDTH 444 0
DWIDTH 8 0
BBX 7 8 1 0
BITMAP
FE
8C
98
38
30
62
E2
FE
ENDCHAR
STARTCHAR 007B
ENCODING 123
SWIDTH 277 0
DWIDTH 5 0
BBX 6 17 0 -3
BITMAP
08
1C
30
30
30
30
30
30
E0
30
30
30
30
30
30
18
08
ENDCHAR
STARTCHAR 007C
ENCODING 124
SWIDTH 222 0
DWIDTH 4 0
BBX 1 19 2 -4
BITMAP
80
80
80
80
80
80
80
80
80
80
80
80
80
80
80
80
80
80
80
ENDCHAR
STARTCHAR 007D
ENCODING 125
SWIDTH 277 0
DWIDTH 5 0
BBX 6 17 -1 -3
BITMAP
40
60
30
30
30
30
30
30
1C
30
30
30
30
30
30
60
C0
ENDCHAR
STARTCHAR 007E
ENCODING 126
SWIDTH 500 0
DWIDTH 9 0
BBX 8 2 0 4
BITMAP
39
CE
ENDCHAR
STARTCHAR 00A0
ENCODING 160
SWIDTH 222 0
DWIDTH 4 0
BBX 0 0 0 0
BITMAP
ENDCHAR
STARTCHAR 00A1
ENCODING 161
SWIDTH 333 0
DWIDTH 6 0
BBX 3 13 1 -5
BITMAP
60
E0
40
40
40
40
60
60
60
60
60
60
C0
ENDCHAR
STARTCHAR 00A2
ENCODING 162
SWIDTH 500 0
DWIDTH 9 0
BBX 7 11 1 0
BITMAP
10
18
7E
94
90
90
90
D2
7C
10
10
ENDCHAR
STARTCHAR 00A3
ENCODING 163
SWIDTH 500 0
DWIDTH 9 0
BBX 8 11 1 0
BITMAP
1E
22
62
60
60
FC
60
60
61
7F
9E
ENDCHAR
STARTCHAR 00A4
ENCODING 164
SWIDTH 500 0
DWIDTH 9 0
BBX 7 7 1 2
BITMAP
84
7E
44
44
44
44
FE
ENDCHAR
STARTCHAR 00A5
ENCODING 165
SWIDTH 500 0
DWIDTH 9 0
BBX 10 11 -1 0
BITMAP
E3C0
7100
3300
3A00
1A00
1E00
0C00
7F80
0C00
0C00
1E00
ENDCHAR
STARTCHAR 00A6
ENCODING 166
SWIDTH 222 0
DWIDTH 4 0
BBX 1 19 2 -4
BITMAP
80
80
80
80
80
80
80
80
00
00
00
80
80
80
80
80
80
80
80
ENDCHAR
STARTCHAR 00A7
ENCODING 167
SWIDTH 500 0
DWIDTH 9 0
BBX 7 13 1 0
BITMAP
70
98
90
F0
FC
9E
82
62
3C
0C
44
64
7C
ENDCHAR
STARTCHAR 00A8
ENCODING 168
SWIDTH 388 0
DWIDTH 7 0
BBX 6 3 0 9
BITMAP
C4
CC
8C
ENDCHAR
STARTCHAR 00A9
ENCODING 169
SWIDTH 722 0
DWIDTH 13 0
BBX 11 12 1 0
BITMAP
1F00
2080
4F40
9320
9220
9020
9020
9020
8920
4E40
2080
1F00
ENDCHAR
STARTCHAR 00AA
ENCODING 170
SWIDTH 277 0
DWIDTH 5 0
BBX 5 6 0 5
BITMAP
70
D0
B0
90
F8
F0
ENDCHAR
STARTCHAR 00AB
ENCODING 171
SWIDTH 500 0
DWIDTH 9 0
BBX 7 8 1 0
BITMAP
12
26
6C
DC
DC
6C
26
12
ENDCHAR
STARTCHAR 00AC
ENCODING 172
SWIDTH 500 0
DWIDTH 9 0
BBX 7 4 1 1
BITMAP
FE
02
02
02
ENDCHAR
STARTCHAR 00AD
ENCODING 173
SWIDTH 333 0
DWIDTH 6 0
BBX 6 1 0 4
BITMAP
FC
ENDCHAR
STARTCHAR 00AE
ENCODING 174
SWIDTH 333 0
DWIDTH 6 0
BBX 6 7 0 6
BITMAP
78
48
BC
BC
B4
68
78
ENDCHAR
STARTCHAR 00AF
ENCODING 175
SWIDTH 500 0
DWIDTH 9 0
BBX 7 1 1 11
BITMAP
FE
ENDCHAR
STARTCHAR 00B0
ENCODING 176
SWIDTH 333 0
DWIDTH 6 0
BBX 4 4 1 7
BITMAP
70
90
90
E0
ENDCHAR
STARTCHAR 00B1
ENCODING 177
SWIDTH 388 0
DWIDTH 7 0
BBX 7 8 0 1
BITMAP
10
10
FE
10
10
10
00
FE
ENDCHAR
STARTCHAR 00B2
ENCODING 178
SWIDTH 333 0
DWIDTH 6 0
BBX 4 7 1 5
BITMAP
70
D0
10
20
40
90
F0
ENDCHAR
STARTCHAR 00B3
ENCODING 179
SWIDTH 333 0
DWIDTH 6 0
BBX 4 7 1 5
BITMAP
30
50
90
30
10
90
E0
ENDCHAR
STARTCHAR 00B4
ENCODING 180
SWIDTH 333 0
DWIDTH 6 0
BBX 4 4 2 9
BITMAP
70
60
C0
80
ENDCHAR
STARTCHAR 00B5
ENCODING 181
SWIDTH 555 0
DWIDTH 10 0
BBX 9 12 1 -4
BITMAP
E300
6300
6300
6300
6300
6300
7F80
5B00
4000
4000
6000
7000
ENDCHAR
STARTCHAR 00B6
ENCODING 182
SWIDTH 611 0
DWIDTH 11 0
BBX 10 13 0 -2
BITMAP
3FC0
6280
C280
C280
6280
3E80
0280
0280
0280
0280
0280
0280
07C0
ENDCHAR
STARTCHAR 00B7
ENCODING 183
SWIDTH 222 0
DWIDTH 4 0
BBX 3 3 0 5
BITMAP
E0
E0
C0
ENDCHAR
STARTCHAR 00B8
ENCODING 184
SWIDTH 222 0
DWIDTH 4 0
BBX 2 4 2 -4
BITMAP
C0
40
40
C0
ENDCHAR
STARTCHAR 00B9
ENCODING 185
SWIDTH 333 0
DWIDTH 6 0
BBX 4 7 1 5
BITMAP
20
E0
20
20
20
20
F0
ENDCHAR
STARTCHAR 00BA
ENCODING 186
SWIDTH 277 0
DWIDTH 5 0
BBX 4 6 0 5
BITMAP
60
90
90
90
60
F0
ENDCHAR
STARTCHAR 00BB
ENCODING 187
SWIDTH 500 0
DWIDTH 9 0
BBX 8 8 1 0
BITMAP
88
4C
66
37
37
66
4C
88
ENDCHAR
STARTCHAR 00BC
ENCODING 188
SWIDTH 611 0
DWIDTH 11 0
BBX 10 11 1 0
BITMAP
C0C0
4180
4100
4200
4400
AC00
0880
1380
3280
63C0
C5C0
ENDCHAR
STARTCHAR 00BD
ENCODING 189
SWIDTH 611 0
DWIDTH 11 0
BBX 9 11 1 0
BITMAP
C080
4100
4200
4200
4400
A800
1980
1280
2100
6280
C780
ENDCHAR
STARTCHAR 00BE
ENCODING 190
SWIDTH 611 0
DWIDTH 11 0
BBX 11 11 0 0
BITMAP
6060
50C0
2080
1100
9200
E600
0440
09C0
1940
31E0
62E0
ENDCHAR
STARTCHAR 00BF
ENCODING 191
SWIDTH 444 0
DWIDTH 8 0
BBX 6 13 1 -5
BITMAP
38
38
30
10
10
10
20
60
C0
C4
CC
CC
70
ENDCHAR
STARTCHAR 00C0
ENCODING 192
SWIDTH 611 0
DWIDTH 11 0
BBX 11 16 0 0
BITMAP
1000
1800
0C00
0600
0000
0600
0E00
0E00
0B00
1300
1300
3F80
2180
21C0
60C0
F1E0
ENDCHAR
STARTCHAR 00C1
ENCODING 193
SWIDTH 611 0
DWIDTH 11 0
BBX 11 16 0 0
BITMAP
0100
0380
0600
0C00
0000
0600
0E00
0E00
0B00
1300
1300
3F80
2180
21C0
60C0
F1E0
ENDCHAR
STARTCHAR 00C2
ENCODING 194
SWIDTH 611 0
DWIDTH 11 0
BBX 11 16 0 0
BITMAP
0400
0E00
1F00
1100
0080
0600
0E00
0E00
0B00
1300
1300
3F80
2180
21C0
60C0
F1E0
ENDCHAR
STARTCHAR 00C3
ENCODING 195
SWIDTH 611 0
DWIDTH 11 0
BBX 11 15 0 0
BITMAP
0C80
1F80
2700
0000
0600
0E00
0E00
0B00
1300
1300
3F80
2180
21C0
60C0
F1E0
ENDCHAR
STARTCHAR 00C4
ENCODING 196
SWIDTH 611 0
DWIDTH 11 0
BBX 11 15 0 0
BITMAP
1080
3180
3180
0000
0600
0E00
0E00
0B00
1300
1300
3F80
2180
21C0
60C0
F1E0
ENDCHAR
STARTCHAR 00C5
ENCODING 197
SWIDTH 611 0
DWIDTH 11 0
BBX 11 16 0 0
BITMAP
0600
0A00
0A00
0E00
0000
0600
0E00
0E00
0B00
1300
1300
3F80
2180
21C0
60C0
F1E0
ENDCHAR
STARTCHAR 00C6
ENCODING 198
SWIDTH 833 0
DWIDTH 15 0
BBX 14 11 0 0
BITMAP
0FFC
078C
0588
0D80
0980
1FF8
1980
1180
3184
2184
F3FC
ENDCHAR
STARTCHAR 00C7
ENCODING 199
SWIDTH 555 0
DWIDTH 10 0
BBX 9 15 0 -4
BITMAP
1F00
6300
4000
C000
C000
C000
C000
C000
6000
7080
1F00
0400
0200
0600
1C00
ENDCHAR
STARTCHAR 00C8
ENCODING 200
SWIDTH 500 0
DWIDTH 9 0
BBX 9 16 0 0
BITMAP
2000
3000
1800
0400
0000
FF00
3100
3100
3000
3000
3F00
3000
3000
3080
3080
FF80
ENDCHAR
STARTCHAR 00C9
ENCODING 201
SWIDTH 500 0
DWIDTH 9 0
BBX 9 16 0 0
BITMAP
0200
0700
0E00
1800
0000
FF00
3100
3100
3000
3000
3F00
3000
3000
3080
3080
FF80
ENDCHAR
STARTCHAR 00CA
ENCODING 202
SWIDTH 500 0
DWIDTH 9 0
BBX 9 16 0 0
BITMAP
0800
1C00
1E00
2300
0000
FF00
3100
3100
3000
3000
3F00
3000
3000
3080
3080
FF80
ENDCHAR
STARTCHAR 00CB
ENCODING 203
SWIDTH 500 0
DWIDTH 9 0
BBX 9 15 0 0
BITMAP
2100
6100
6300
0000
FF00
3100
3100
3000
3000
3F00
3000
3000
3080
3080
FF80
ENDCHAR
STARTCHAR 00CC
ENCODING 204
SWIDTH 333 0
DWIDTH 6 0
BBX 5 16 0 0
BITMAP
40
E0
70
10
08
78
30
30
30
30
30
30
30
30
30
78
ENDCHAR
STARTCHAR 00CD
ENCODING 205
SWIDTH 333 0
DWIDTH 6 0
BBX 5 16 1 0
BITMAP
10
38
70
C0
00
F0
60
60
60
60
60
60
60
60
60
F0
ENDCHAR
STARTCHAR 00CE
ENCODING 206
SWIDTH 333 0
DWIDTH 6 0
BBX 6 16 0 0
BITMAP
30
70
78
CC
00
78
30
30
30
30
30
30
30
30
30
78
ENDCHAR
STARTCHAR 00CF
ENCODING 207
SWIDTH 333 0
DWIDTH 6 0
BBX 7 15 -1 0
BITMAP
42
C2
C2
00
3C
18
18
18
18
18
18
18
18
18
3C
ENDCHAR
STARTCHAR 00D0
ENCODING 208
SWIDTH 611 0
DWIDTH 11 0
BBX 9 11 1 0
BITMAP
FE00
6300
6100
6180
6180
F980
6180
6180
6100
6300
FC00
ENDCHAR
STARTCHAR 00D1
ENCODING 209
SWIDTH 666 0
DWIDTH 12 0
BBX 10 15 1 0
BITMAP
1900
3F00
2E00
0000
E1C0
6080
7080
7880
5C80
4C80
4680
4780
4380
4180
E180
ENDCHAR
STARTCHAR 00D2
ENCODING 210
SWIDTH 611 0
DWIDTH 11 0
BBX 10 16 0 0
BITMAP
1000
1800
0C00
0200
0000
1E00
2180
4080
C0C0
C0C0
C0C0
C0C0
C0C0
4080
6100
1E00
ENDCHAR
STARTCHAR 00D3
ENCODING 211
SWIDTH 611 0
DWIDTH 11 0
BBX 10 16 0 0
BITMAP
0100
0380
0600
0C00
0000
1E00
2180
4080
C0C0
C0C0
C0C0
C0C0
C0C0
4080
6100
1E00
ENDCHAR
STARTCHAR 00D4
ENCODING 212
SWIDTH 611 0
DWIDTH 11 0
BBX 10 16 0 0
BITMAP
0400
0E00
1F00
1180
0000
1E00
2180
4080
C0C0
C0C0
C0C0
C0C0
C0C0
4080
6100
1E00
ENDCHAR
STARTCHAR 00D5
ENCODING 213
SWIDTH 611 0
DWIDTH 11 0
BBX 10 15 0 0
BITMAP
0C80
1F80
2700
0000
1E00
2180
4080
C0C0
C0C0
C0C0
C0C0
C0C0
4080
6100
1E00
ENDCHAR
STARTCHAR 00D6
ENCODING 214
SWIDTH 611 0
DWIDTH 11 0
BBX 10 15 0 0
BITMAP
1080
3180
3180
0000
1E00
2180
4080
C0C0
C0C0
C0C0
C0C0
C0C0
4080
6100
1E00
ENDCHAR
STARTCHAR 00D7
ENCODING 215
SWIDTH 444 0
DWIDTH 8 0
BBX 6 6 1 2
BITMAP
8C
D8
70
70
D8
8C
ENDCHAR
STARTCHAR 00D8
ENCODING 216
SWIDTH 611 0
DWIDTH 11 0
BBX 10 11 0 0
BITMAP
1FC0
2380
6380
C3C0
C6C0
CCC0
D8C0
F0C0
7180
7100
FE00
ENDCHAR
STARTCHAR 00D9
ENCODING 217
SWIDTH 666 0
DWIDTH 12 0
BBX 10 16 1 0
BITMAP
1000
3800
1C00
0600
0000
F1C0
6080
6080
6080
6080
6080
6080
6080
6080
3100
1E00
ENDCHAR
STARTCHAR 00DA
ENCODING 218
SWIDTH 666 0
DWIDTH 12 0
BBX 10 16 1 0
BITMAP
0200
0700
0E00
1800
0000
F1C0
6080
6080
6080
6080
6080
6080
6080
6080
3100
1E00
ENDCHAR
STARTCHAR 00DB
ENCODING 219
SWIDTH 666 0
DWIDTH 12 0
BBX 10 16 1 0
BITMAP
0C00
0E00
1E00
3300
0000
F1C0
6080
6080
6080
6080
6080
6080
6080
6080
3100
1E00
ENDCHAR
STARTCHAR 00DC
ENCODING 220
SWIDTH 666 0
DWIDTH 12 0
BBX 10 15 1 0
BITMAP
2100
2180
2100
0000
F1C0
6080
6080
6080
6080
6080
6080
6080
6080
3100
1E00
ENDCHAR
STARTCHAR 00DD
ENCODING 221
SWIDTH 611 0
DWIDTH 11 0
BBX 10 16 1 0
BITMAP
0400
0700
0C00
1800
0000
E3C0
7180
3100
3B00
1A00
0E00
0C00
0C00
0C00
0C00
1E00
ENDCHAR
STARTCHAR 00DE
ENCODING 222
SWIDTH 555 0
DWIDTH 10 0
BBX 8 11 1 0
BITMAP
F0
60
7E
63
63
63
63
62
7C
60
F0
ENDCHAR
STARTCHAR 00DF
ENCODING 223
SWIDTH 611 0
DWIDTH 11 0
BBX 9 13 1 0
BITMAP
0E00
3180
2180
6180
6100
6600
6800
6400
6700
6180
6880
6880
EF00
ENDCHAR
STARTCHAR 00E0
ENCODING 224
SWIDTH 500 0
DWIDTH 9 0
BBX 8 13 1 0
BITMAP
60
30
10
08
00
3C
66
C6
1E
66
C6
CF
76
ENDCHAR
STARTCHAR 00E1
ENCODING 225
SWIDTH 500 0
DWIDTH 9 0
BBX 8 13 1 0
BITMAP
0C
1C
18
30
00
3C
66
C6
1E
66
C6
CF
76
ENDCHAR
STARTCHAR 00E2
ENCODING 226
SWIDTH 500 0
DWIDTH 9 0
BBX 8 13 1 0
BITMAP
10
38
6C
C6
00
3C
66
C6
1E
66
C6
CF
76
ENDCHAR
STARTCHAR 00E3
ENCODING 227
SWIDTH 500 0
DWIDTH 9 0
BBX 8 12 1 0
BITMAP
72
FC
00
00
3C
66
C6
1E
66
C6
CF
76
ENDCHAR
STARTCHAR 00E4
ENCODING 228
SWIDTH 500 0
DWIDTH 9 0
BBX 8 12 1 0
BITMAP
C2
C6
86
00
3C
66
C6
1E
66
C6
CF
76
ENDCHAR
STARTCHAR 00E5
ENCODING 229
SWIDTH 500 0
DWIDTH 9 0
BBX 8 13 1 0
BITMAP
18
28
28
30
00
3C
66
C6
1E
66
C6
CF
76
ENDCHAR
STARTCHAR 00E6
ENCODING 230
SWIDTH 722 0
DWIDTH 13 0
BBX 11 8 1 0
BITMAP
3DC0
6620
C420
3FE0
4400
C620
FFC0
7380
ENDCHAR
STARTCHAR 00E7
ENCODING 231
SWIDTH 444 0
DWIDTH 8 0
BBX 7 12 1 -4
BITMAP
3E
46
C4
C0
C0
C0
66
38
10
08
18
30
ENDCHAR
STARTCHAR 00E8
ENCODING 232
SWIDTH 500 0
DWIDTH 9 0
BBX 7 13 1 0
BITMAP
60
30
18
08
00
3C
46
C6
FE
C0
C0
62
3C
ENDCHAR
STARTCHAR 00E9
ENCODING 233
SWIDTH 500 0
DWIDTH 9 0
BBX 7 13 1 0
BITMAP
0C
0E
18
30
00
3C
46
C6
FE
C0
C0
62
3C
ENDCHAR
STARTCHAR 00EA
ENCODING 234
SWIDTH 500 0
DWIDTH 9 0
BBX 7 13 1 0
BITMAP
18
38
6C
42
00
3C
46
C6
FE
C0
C0
62
3C
ENDCHAR
STARTCHAR 00EB
ENCODING 235
SWIDTH 500 0
DWIDTH 9 0
BBX 7 12 1 0
BITMAP
42
C6
C2
00
3C
46
C6
FE
C0
C0
62
3C
ENDCHAR
STARTCHAR 00EC
ENCODING 236
SWIDTH 277 0
DWIDTH 5 0
BBX 5 13 0 0
BITMAP
E0
60
30
10
00
30
70
30
30
30
30
30
78
ENDCHAR
STARTCHAR 00ED
ENCODING 237
SWIDTH 277 0
DWIDTH 5 0
BBX 5 13 1 0
BITMAP
30
38
60
40
80
60
E0
60
60
60
60
60
F0
ENDCHAR
STARTCHAR 00EE
ENCODING 238
SWIDTH 277 0
DWIDTH 5 0
BBX 6 13 0 0
BITMAP
30
70
D8
84
00
30
70
30
30
30
30
30
78
ENDCHAR
STARTCHAR 00EF
ENCODING 239
SWIDTH 277 0
DWIDTH 5 0
BBX 7 12 -1 0
BITMAP
42
C2
C2
00
18
38
18
18
18
18
18
3C
ENDCHAR
STARTCHAR 00F0
ENCODING 240
SWIDTH 500 0
DWIDTH 9 0
BBX 7 13 1 0
BITMAP
70
3E
38
6C
04
3E
4E
C6
C6
C6
C4
4C
38
ENDCHAR
STARTCHAR 00F1
ENCODING 241
SWIDTH 555 0
DWIDTH 10 0
BBX 9 12 1 0
BITMAP
3900
7E00
0000
0000
6E00
FF00
7300
6300
6300
6300
6300
F780
ENDCHAR
STARTCHAR 00F2
ENCODING 242
SWIDTH 500 0
DWIDTH 9 0
BBX 7 13 1 0
BITMAP
70
30
18
08
00
38
44
C6
C6
C6
C6
44
38
ENDCHAR
STARTCHAR 00F3
ENCODING 243
SWIDTH 500 0
DWIDTH 9 0
BBX 7 13 1 0
BITMAP
0E
0C
18
10
00
38
44
C6
C6
C6
C6
44
38
ENDCHAR
STARTCHAR 00F4
ENCODING 244
SWIDTH 500 0
DWIDTH 9 0
BBX 7 13 1 0
BITMAP
18
3C
2C
42
00
38
44
C6
C6
C6
C6
44
38
ENDCHAR
STARTCHAR 00F5
ENCODING 245
SWIDTH 500 0
DWIDTH 9 0
BBX 7 12 1 0
BITMAP
32
7C
80
00
38
44
C6
C6
C6
C6
44
38
ENDCHAR
STARTCHAR 00F6
ENCODING 246
SWIDTH 500 0
DWIDTH 9 0
BBX 7 12 1 0
BITMAP
42
C2
42
00
38
44
C6
C6
C6
C6
44
38
ENDCHAR
STARTCHAR 00F7
ENCODING 247
SWIDTH 444 0
DWIDTH 8 0
BBX 7 6 0 2
BITMAP
10
10
00
7E
90
10
ENDCHAR
STARTCHAR 00F8
ENCODING 248
SWIDTH 500 0
DWIDTH 9 0
BBX 7 9 1 0
BITMAP
02
3A
44
CE
D6
E6
E6
44
F8
ENDCHAR
STARTCHAR 00F9
ENCODING 249
SWIDTH 555 0
DWIDTH 10 0
BBX 10 13 0 0
BITMAP
1800
3800
0C00
0400
0000
E380
6180
6180
6180
6180
6180
7FC0
3980
ENDCHAR
STARTCHAR 00FA
ENCODING 250
SWIDTH 555 0
DWIDTH 10 0
BBX 10 13 0 0
BITMAP
0700
0600
0C00
0800
0000
E380
6180
6180
6180
6180
6180
7FC0
3980
ENDCHAR
STARTCHAR 00FB
ENCODING 251
SWIDTH 555 0
DWIDTH 10 0
BBX 10 13 0 0
BITMAP
0C00
1E00
1200
2100
0000
E380
6180
6180
6180
6180
6180
7FC0
3980
ENDCHAR
STARTCHAR 00FC
ENCODING 252
SWIDTH 555 0
DWIDTH 10 0
BBX 10 12 0 0
BITMAP
2100
2180
2100
0000
E380
6180
6180
6180
6180
6180
7FC0
3980
ENDCHAR
STARTCHAR 00FD
ENCODING 253
SWIDTH 500 0
DWIDTH 9 0
BBX 10 17 -1 -4
BITMAP
0300
0380
0600
0400
0800
79C0
3080
1980
1900
0F00
0E00
0E00
0600
0400
0C00
7800
F000
ENDCHAR
STARTCHAR 00FE
ENCODING 254
SWIDTH 555 0
DWIDTH 10 0
BBX 8 18 1 -4
BITMAP
60
E0
60
60
60
60
6E
7F
61
61
61
61
62
7C
60
60
60
F0
ENDCHAR
STARTCHAR 00FF
ENCODING 255
SWIDTH 500 0
DWIDTH 9 0
BBX 10 16 -1 -4
BITMAP
1080
3080
3080
0000
79C0
3080
1980
1900
0F00
0E00
0E00
0600
0400
0C00
7800
F000
ENDCHAR
STARTCHAR 0100
ENCODING 256
SWIDTH 611 0
DWIDTH 11 0
BBX 11 14 0 0
BITMAP
3F80
0000
0000
0600
0E00
0E00
0B00
1300
1300
3F80
2180
21C0
60C0
F1E0
ENDCHAR
STARTCHAR 0101
ENCODING 257
SWIDTH 500 0
DWIDTH 9 0
BBX 8 12 1 0
BITMAP
FE
00
00
00
3C
66
C6
1E
66
C6
CF
76
ENDCHAR
STARTCHAR 0102
ENCODING 258
SWIDTH 611 0
DWIDTH 11 0
BBX 11 16 0 0
BITMAP
2100
1180
1F00
0E00
0000
0600
0E00
0E00
0B00
1300
1300
3F80
2180
21C0
60C0
F1E0
ENDCHAR
STARTCHAR 0103
ENCODING 259
SWIDTH 500 0
DWIDTH 9 0
BBX 8 13 1 0
BITMAP
84
46
7C
38
00
3C
66
C6
1E
66
C6
CF
76
ENDCHAR
STARTCHAR 0106
ENCODING 262
SWIDTH 555 0
DWIDTH 10 0
BBX 8 16 1 0
BITMAP
02
07
0C
18
00
1F
63
40
C0
C0
C0
C0
C0
C0
61
3E
ENDCHAR
STARTCHAR 0107
ENCODING 263
SWIDTH 444 0
DWIDTH 8 0
BBX 7 13 1 0
BITMAP
0C
1C
18
20
00
3E
46
C4
C0
C0
C0
42
7C
ENDCHAR
STARTCHAR 0108
ENCODING 264
SWIDTH 555 0
DWIDTH 10 0
BBX 8 16 1 0
BITMAP
08
1C
3E
23
00
1F
63
40
C0
C0
C0
C0
C0
C0
61
3E
ENDCHAR
STARTCHAR 0109
ENCODING 265
SWIDTH 444 0
DWIDTH 8 0
BBX 7 13 1 0
BITMAP
10
38
6C
C4
00
3E
46
C4
C0
C0
C0
42
7C
ENDCHAR
STARTCHAR 010A
ENCODING 266
SWIDTH 555 0
DWIDTH 10 0
BBX 8 15 1 0
BITMAP
08
18
18
00
1F
63
40
C0
C0
C0
C0
C0
C0
61
3E
ENDCHAR
STARTCHAR 010B
ENCODING 267
SWIDTH 444 0
DWIDTH 8 0
BBX 7 12 1 0
BITMAP
30
30
20
00
3E
46
C4
C0
C0
C0
42
7C
ENDCHAR
STARTCHAR 010C
ENCODING 268
SWIDTH 555 0
DWIDTH 10 0
BBX 8 16 1 0
BITMAP
22
37
1C
0C
00
1F
63
40
C0
C0
C0
C0
C0
C0
61
3E
ENDCHAR
STARTCHAR 010D
ENCODING 269
SWIDTH 444 0
DWIDTH 8 0
BBX 7 13 1 0
BITMAP
44
EE
38
30
00
3E
46
C4
C0
C0
C0
42
7C
ENDCHAR
STARTCHAR 010E
ENCODING 270
SWIDTH 611 0
DWIDTH 11 0
BBX 9 16 1 0
BITMAP
4200
3600
3C00
1800
0000
FE00
6300
6100
6180
6180
6180
6180
6180
6100
6300
FC00
ENDCHAR
STARTCHAR 0110
ENCODING 272
SWIDTH 611 0
DWIDTH 11 0
BBX 9 11 1 0
BITMAP
FE00
6300
6100
6180
6180
F980
6180
6180
6100
6300
FC00
ENDCHAR
STARTCHAR 0111
ENCODING 273
SWIDTH 555 0
DWIDTH 10 0
BBX 9 14 1 0
BITMAP
0300
0700
0300
1F80
0300
0300
3F00
4300
C300
C300
C300
C300
7F80
3B00
ENDCHAR
STARTCHAR 0112
ENCODING 274
SWIDTH 500 0
DWIDTH 9 0
BBX 9 14 0 0
BITMAP
7F80
0000
0000
FF00
3100
3100
3000
3000
3F00
3000
3000
3080
3080
FF80
ENDCHAR
STARTCHAR 0113
ENCODING 275
SWIDTH 500 0
DWIDTH 9 0
BBX 8 12 1 0
BITMAP
FF
00
00
00
3C
46
C6
FE
C0
C0
62
3C
ENDCHAR
STARTCHAR 0114
ENCODING 276
SWIDTH 500 0
DWIDTH 9 0
BBX 9 16 0 0
BITMAP
4100
2300
3E00
1C00
0000
FF00
3100
3100
3000
3000
3F00
3000
3000
3080
3080
FF80
ENDCHAR
STARTCHAR 0115
ENCODING 277
SWIDTH 500 0
DWIDTH 9 0
BBX 7 13 1 0
BITMAP
42
46
7C
38
00
3C
46
C6
FE
C0
C0
62
3C
ENDCHAR
STARTCHAR 0116
ENCODING 278
SWIDTH 500 0
DWIDTH 9 0
BBX 9 15 0 0
BITMAP
0800
1800
1800
0000
FF00
3100
3100
3000
3000
3F00
3000
3000
3080
3080
FF80
ENDCHAR
STARTCHAR 0117
ENCODING 279
SWIDTH 500 0
DWIDTH 9 0
BBX 7 12 1 0
BITMAP
10
30
30
00
3C
46
C6
FE
C0
C0
62
3C
ENDCHAR
STARTCHAR 011A
ENCODING 282
SWIDTH 500 0
DWIDTH 9 0
BBX 9 16 0 0
BITMAP
2200
3700
1E00
0C00
0000
FF00
3100
3100
3000
3000
3F00
3000
3000
3080
3080
FF80
ENDCHAR
STARTCHAR 011B
ENCODING 283
SWIDTH 500 0
DWIDTH 9 0
BBX 7 13 1 0
BITMAP
46
6C
38
18
00
3C
46
C6
FE
C0
C0
62
3C
ENDCHAR
STARTCHAR 011C
ENCODING 284
SWIDTH 611 0
DWIDTH 11 0
BBX 11 16 0 0
BITMAP
0600
0E00
0F00
1180
0000
0FC0
31C0
4000
C000
C000
C000
C1E0
C0C0
40C0
70C0
1F80
ENDCHAR
STARTCHAR 011D
ENCODING 285
SWIDTH 500 0
DWIDTH 9 0
BBX 10 17 0 -4
BITMAP
0C00
1C00
3600
2300
0000
3EC0
C100
8100
C100
3E00
7000
FE00
FF80
E380
C080
C100
3E00
ENDCHAR
STARTCHAR 011E
ENCODING 286
SWIDTH 611 0
DWIDTH 11 0
BBX 11 16 0 0
BITMAP
2080
1180
1F00
0E00
0000
0FC0
31C0
4000
C000
C000
C000
C1E0
C0C0
40C0
70C0
1F80
ENDCHAR
STARTCHAR 011F
ENCODING 287
SWIDTH 500 0
DWIDTH 9 0
BBX 10 17 0 -4
BITMAP
4100
2200
3E00
1C00
0000
3EC0
C100
8100
C100
3E00
7000
FE00
FF80
E380
C080
C100
3E00
ENDCHAR
STARTCHAR 0120
ENCODING 288
SWIDTH 611 0
DWIDTH 11 0
BBX 11 15 0 0
BITMAP
0400
0C00
0C00
0000
0FC0
31C0
4000
C000
C000
C000
C1E0
C0C0
40C0
70C0
1F80
ENDCHAR
STARTCHAR 0121
ENCODING 289
SWIDTH 500 0
DWIDTH 9 0
BBX 10 16 0 -4
BITMAP
1800
1800
1800
0000
3EC0
C100
8100
C100
3E00
7000
FE00
FF80
E380
C080
C100
3E00
ENDCHAR
STARTCHAR 0124
ENCODING 292
SWIDTH 666 0
DWIDTH 12 0
BBX 10 16 1 0
BITMAP
0C00
0E00
1E00
3300
0000
F3C0
6180
6180
6180
6180
7F80
6180
6180
6180
6180
F3C0
ENDCHAR
STARTCHAR 0125
ENCODING 293
SWIDTH 555 0
DWIDTH 10 0
BBX 9 18 1 0
BITMAP
1800
1C00
3E00
6200
6000
E000
6000
6000
6000
6000
6600
7F00
7300
6300
6300
6300
6300
F780
ENDCHAR
STARTCHAR 0128
ENCODING 296
SWIDTH 333 0
DWIDTH 6 0
BBX 7 15 -1 0
BITMAP
32
7E
5C
80
3C
18
18
18
18
18
18
18
18
18
3C
ENDCHAR
STARTCHAR 0129
ENCODING 297
SWIDTH 277 0
DWIDTH 5 0
BBX 7 12 -1 0
BITMAP
72
7C
80
00
18
38
18
18
18
18
18
3C
ENDCHAR
STARTCHAR 012A
ENCODING 298
SWIDTH 333 0
DWIDTH 6 0
BBX 6 15 0 0
BITMAP
FC
00
00
00
78
30
30
30
30
30
30
30
30
30
78
ENDCHAR
STARTCHAR 012B
ENCODING 299
SWIDTH 277 0
DWIDTH 5 0
BBX 6 12 0 0
BITMAP
FC
00
00
00
30
70
30
30
30
30
30
78
ENDCHAR
STARTCHAR 012C
ENCODING 300
SWIDTH 333 0
DWIDTH 6 0
BBX 6 16 0 0
BITMAP
84
8C
F8
78
00
78
30
30
30
30
30
30
30
30
30
78
ENDCHAR
STARTCHAR 012D
ENCODING 301
SWIDTH 277 0
DWIDTH 5 0
BBX 6 13 0 0
BITMAP
84
8C
F8
70
00
30
70
30
30
30
30
30
78
ENDCHAR
STARTCHAR 0130
ENCODING 304
SWIDTH 333 0
DWIDTH 6 0
BBX 4 15 1 0
BITMAP
40
C0
C0
00
F0
60
60
60
60
60
60
60
60
60
F0
ENDCHAR
STARTCHAR 0131
ENCODING 305
SWIDTH 277 0
DWIDTH 5 0
BBX 4 8 1 0
BITMAP
60
E0
60
60
60
60
60
F0
ENDCHAR
STARTCHAR 0132
ENCODING 306
SWIDTH 666 0
DWIDTH 12 0
BBX 10 14 1 -3
BITMAP
F7C0
6180
6180
6180
6180
6180
6180
6180
6180
6180
F180
0100
1300
3C00
ENDCHAR
STARTCHAR 0133
ENCODING 307
SWIDTH 611 0
DWIDTH 11 0
BBX 8 16 1 -4
BITMAP
33
73
00
00
66
EE
66
66
66
66
66
F6
06
26
7C
38
ENDCHAR
STARTCHAR 0139
ENCODING 313
SWIDTH 500 0
DWIDTH 9 0
BBX 8 16 1 0
BITMAP
08
0C
18
20
00
F0
60
60
60
60
60
60
60
61
61
FF
ENDCHAR
STARTCHAR 013A
ENCODING 314
SWIDTH 277 0
DWIDTH 5 0
BBX 5 19 1 0
BITMAP
20
38
70
C0
00
60
E0
60
60
60
60
60
60
60
60
60
60
60
F0
ENDCHAR
STARTCHAR 0141
ENCODING 321
SWIDTH 500 0
DWIDTH 9 0
BBX 8 11 1 0
BITMAP
F0
60
60
64
78
70
E0
60
61
61
FF
ENDCHAR
STARTCHAR 0142
ENCODING 322
SWIDTH 333 0
DWIDTH 6 0
BBX 5 14 1 0
BITMAP
60
E0
60
60
60
78
70
E0
E0
60
60
60
60
F0
ENDCHAR
STARTCHAR 0143
ENCODING 323
SWIDTH 666 0
DWIDTH 12 0
BBX 10 16 1 0
BITMAP
0200
0700
0E00
1800
0000
E1C0
6080
7080
7880
5C80
4C80
4680
4780
4380
4180
E180
ENDCHAR
STARTCHAR 0144
ENCODING 324
SWIDTH 555 0
DWIDTH 10 0
BBX 9 13 1 0
BITMAP
0600
0C00
0800
1000
0000
6E00
FF00
7300
6300
6300
6300
6300
F780
ENDCHAR
STARTCHAR 0147
ENCODING 327
SWIDTH 666 0
DWIDTH 12 0
BBX 10 16 1 0
BITMAP
2100
3E00
1E00
0C00
0000
E1C0
6080
7080
7880
5C80
4C80
4680
4780
4380
4180
E180
ENDCHAR
STARTCHAR 0148
ENCODING 328
SWIDTH 555 0
DWIDTH 10 0
BBX 9 13 1 0
BITMAP
4200
3600
1C00
1800
0000
6E00
FF00
7300
6300
6300
6300
6300
F780
ENDCHAR
STARTCHAR 014A
ENCODING 330
SWIDTH 666 0
DWIDTH 12 0
BBX 9 14 1 -3
BITMAP
6700
EF80
7980
6180
6180
6180
6180
6180
6180
6180
F180
0100
3200
7C00
ENDCHAR
STARTCHAR 014B
ENCODING 331
SWIDTH 555 0
DWIDTH 10 0
BBX 8 12 1 -4
BITMAP
6E
FF
73
63
63
63
63
F3
03
03
22
7C
ENDCHAR
STARTCHAR 014C
ENCODING 332
SWIDTH 611 0
DWIDTH 11 0
BBX 10 14 0 0
BITMAP
3F80
0000
0000
1E00
2180
4080
C0C0
C0C0
C0C0
C0C0
C0C0
4080
6100
1E00
ENDCHAR
STARTCHAR 014D
ENCODING 333
SWIDTH 500 0
DWIDTH 9 0
BBX 8 12 1 0
BITMAP
FF
00
00
00
38
44
C6
C6
C6
C6
44
38
ENDCHAR
STARTCHAR 014E
ENCODING 334
SWIDTH 611 0
DWIDTH 11 0
BBX 10 16 0 0
BITMAP
2100
1180
1F00
0E00
0000
1E00
2180
4080
C0C0
C0C0
C0C0
C0C0
C0C0
4080
6100
1E00
ENDCHAR
STARTCHAR 014F
ENCODING 335
SWIDTH 500 0
DWIDTH 9 0
BBX 7 13 1 0
BITMAP
42
66
3C
38
00
38
44
C6
C6
C6
C6
44
38
ENDCHAR
STARTCHAR 0150
ENCODING 336
SWIDTH 611 0
DWIDTH 11 0
BBX 10 16 0 0
BITMAP
0580
0F80
0900
0A00
1000
1E00
2180
4080
C0C0
C0C0
C0C0
C0C0
C0C0
4080
6100
1E00
ENDCHAR
STARTCHAR 0151
ENCODING 337
SWIDTH 500 0
DWIDTH 9 0
BBX 8 13 1 0
BITMAP
1B
16
34
24
00
38
44
C6
C6
C6
C6
44
38
ENDCHAR
STARTCHAR 0152
ENCODING 338
SWIDTH 833 0
DWIDTH 15 0
BBX 13 11 1 0
BITMAP
1FF8
2308
4308
C300
C300
C3F0
C300
C300
4308
6308
3FF8
ENDCHAR
STARTCHAR 0153
ENCODING 339
SWIDTH 777 0
DWIDTH 14 0
BBX 13 8 1 0
BITMAP
3DE0
4790
C310
C3F0
C300
C388
67F0
3CE0
ENDCHAR
STARTCHAR 0154
ENCODING 340
SWIDTH 611 0
DWIDTH 11 0
BBX 10 16 1 0
BITMAP
0400
0E00
1C00
3000
0000
FE00
6300
6300
6300
6200
7C00
6400
6600
6300
6380
F1C0
ENDCHAR
STARTCHAR 0155
ENCODING 341
SWIDTH 444 0
DWIDTH 8 0
BBX 8 13 0 0
BITMAP
06
0C
08
10
00
77
FF
32
32
30
30
30
F8
ENDCHAR
STARTCHAR 0158
ENCODING 344
SWIDTH 611 0
DWIDTH 11 0
BBX 10 16 1 0
BITMAP
4200
6C00
3C00
1800
0000
FE00
6300
6300
6300
6200
7C00
6400
6600
6300
6380
F1C0
ENDCHAR
STARTCHAR 0159
ENCODING 345
SWIDTH 444 0
DWIDTH 8 0
BBX 8 13 0 0
BITMAP
62
36
1C
18
00
77
FF
32
32
30
30
30
F8
ENDCHAR
STARTCHAR 015A
ENCODING 346
SWIDTH 500 0
DWIDTH 9 0
BBX 7 16 1 0
BITMAP
04
0E
1C
30
00
3E
C6
80
C0
70
3C
06
02
82
C4
F8
ENDCHAR
STARTCHAR 015B
ENCODING 347
SWIDTH 444 0
DWIDTH 8 0
BBX 6 13 1 0
BITMAP
18
1C
30
20
40
F0
98
90
F0
3C
84
C4
F8
ENDCHAR
STARTCHAR 015C
ENCODING 348
SWIDTH 500 0
DWIDTH 9 0
BBX 7 16 1 0
BITMAP
10
38
7C
46
00
3E
C6
80
C0
70
3C
06
02
82
C4
F8
ENDCHAR
STARTCHAR 015D
ENCODING 349
SWIDTH 444 0
DWIDTH 8 0
BBX 6 13 1 0
BITMAP
30
70
D8
84
00
F0
98
90
F0
3C
84
C4
F8
ENDCHAR
STARTCHAR 0160
ENCODING 352
SWIDTH 500 0
DWIDTH 9 0
BBX 7 16 1 0
BITMAP
44
6E
38
18
00
3E
C6
80
C0
70
3C
06
02
82
C4
F8
ENDCHAR
STARTCHAR 0161
ENCODING 353
SWIDTH 444 0
DWIDTH 8 0
BBX 6 13 1 0
BITMAP
84
D8
70
30
00
F0
98
90
F0
3C
84
C4
F8
ENDCHAR
STARTCHAR 0164
ENCODING 356
SWIDTH 555 0
DWIDTH 10 0
BBX 10 16 0 0
BITMAP
2100
1B00
1E00
0C00
0000
FFC0
8C40
8C40
0C00
0C00
0C00
0C00
0C00
0C00
0C00
1E00
ENDCHAR
STARTCHAR 0168
ENCODING 360
SWIDTH 666 0
DWIDTH 12 0
BBX 10 15 1 0
BITMAP
1880
3F00
2600
0000
F1C0
6080
6080
6080
6080
6080
6080
6080
6080
3100
1E00
ENDCHAR
STARTCHAR 0169
ENCODING 361
SWIDTH 555 0
DWIDTH 10 0
BBX 10 12 0 0
BITMAP
1980
3E00
0000
0000
E380
6180
6180
6180
6180
6180
7FC0
3980
ENDCHAR
STARTCHAR 016A
ENCODING 362
SWIDTH 666 0
DWIDTH 12 0
BBX 10 14 1 0
BITMAP
3F80
4000
0000
F1C0
6080
6080
6080
6080
6080
6080
6080
6080
3100
1E00
ENDCHAR
STARTCHAR 016B
ENCODING 363
SWIDTH 555 0
DWIDTH 10 0
BBX 10 12 0 0
BITMAP
3F80
4000
0000
0000
E380
6180
6180
6180
6180
6180
7FC0
3980
ENDCHAR
STARTCHAR 016C
ENCODING 364
SWIDTH 666 0
DWIDTH 12 0
BBX 10 16 1 0
BITMAP
2100
3100
1F00
1E00
0000
F1C0
6080
6080
6080
6080
6080
6080
6080
6080
3100
1E00
ENDCHAR
STARTCHAR 016D
ENCODING 365
SWIDTH 555 0
DWIDTH 10 0
BBX 10 13 0 0
BITMAP
2100
3300
1E00
0C00
0000
E380
6180
6180
6180
6180
6180
7FC0
3980
ENDCHAR
STARTCHAR 016E
ENCODING 366
SWIDTH 666 0
DWIDTH 12 0
BBX 10 16 1 0
BITMAP
0400
1A00
1200
0C00
0000
F1C0
6080
6080
6080
6080
6080
6080
6080
6080
3100
1E00
ENDCHAR
STARTCHAR 016F
ENCODING 367
SWIDTH 555 0
DWIDTH 10 0
BBX 10 13 0 0
BITMAP
0C00
1200
1400
0C00
0000
E380
6180
6180
6180
6180
6180
7FC0
3980
ENDCHAR
STARTCHAR 0170
ENCODING 368
SWIDTH 666 0
DWIDTH 12 0
BBX 10 16 1 0
BITMAP
0D80
0D00
1B00
1200
0000
F1C0
6080
6080
6080
6080
6080
6080
6080
6080
3100
1E00
ENDCHAR
STARTCHAR 0171
ENCODING 369
SWIDTH 555 0
DWIDTH 10 0
BBX 10 13 0 0
BITMAP
0D80
0B00
1B00
1200
0000
E380
6180
6180
6180
6180
6180
7FC0
3980
ENDCHAR
STARTCHAR 0174
ENCODING 372
SWIDTH 833 0
DWIDTH 15 0
BBX 15 16 0 0
BITMAP
0100
0380
07C0
0460
0000
F11E
6184
318C
33C8
32C8
32C8
1C78
1C70
1C30
1830
0830
ENDCHAR
STARTCHAR 0175
ENCODING 373
SWIDTH 722 0
DWIDTH 13 0
BBX 13 13 0 0
BITMAP
0300
0700
0D80
0840
0000
F238
6310
3320
35A0
35A0
18E0
18C0
18C0
ENDCHAR
STARTCHAR 0176
ENCODING 374
SWIDTH 611 0
DWIDTH 11 0
BBX 10 16 1 0
BITMAP
0800
1C00
3E00
2200
0000
E3C0
7180
3100
3B00
1A00
0E00
0C00
0C00
0C00
0C00
1E00
ENDCHAR
STARTCHAR 0177
ENCODING 375
SWIDTH 500 0
DWIDTH 9 0
BBX 10 17 -1 -4
BITMAP
0600
0E00
1B00
1080
0000
79C0
3080
1980
1900
0F00
0E00
0E00
0600
0400
0C00
7800
F000
ENDCHAR
STARTCHAR 0178
ENCODING 376
SWIDTH 611 0
DWIDTH 11 0
BBX 10 15 1 0
BITMAP
6100
6300
6300
0000
E3C0
7180
3100
3B00
1A00
0E00
0C00
0C00
0C00
0C00
1E00
ENDCHAR
STARTCHAR 0179
ENCODING 377
SWIDTH 555 0
DWIDTH 10 0
BBX 9 16 0 0
BITMAP
0200
0700
0E00
1800
0000
7F80
4300
4700
0600
0E00
0C00
1800
3800
3080
7080
FF80
ENDCHAR
STARTCHAR 017A
ENCODING 378
SWIDTH 444 0
DWIDTH 8 0
BBX 7 13 1 0
BITMAP
0C
1C
18
20
00
FE
8C
98
38
30
62
E2
FE
ENDCHAR
STARTCHAR 017B
ENCODING 379
SWIDTH 555 0
DWIDTH 10 0
BBX 9 15 0 0
BITMAP
0800
0800
0800
0000
7F80
4300
4700
0600
0E00
0C00
1800
3800
3080
7080
FF80
ENDCHAR
STARTCHAR 017C
ENCODING 380
SWIDTH 444 0
DWIDTH 8 0
BBX 7 12 1 0
BITMAP
30
30
20
00
FE
8C
98
38
30
62
E2
FE
ENDCHAR
STARTCHAR 017D
ENCODING 381
SWIDTH 555 0
DWIDTH 10 0
BBX 9 16 0 0
BITMAP
2100
1B00
1E00
0C00
0000
7F80
4300
4700
0600
0E00
0C00
1800
3800
3080
7080
FF80
ENDCHAR
STARTCHAR 017E
ENCODING 382
SWIDTH 444 0
DWIDTH 8 0
BBX 7 13 1 0
BITMAP
44
EC
38
30
00
FE
8C
98
38
30
62
E2
FE
ENDCHAR
STARTCHAR 0181
ENCODING 385
SWIDTH 722 0
DWIDTH 13 0
BBX 12 11 0 0
BITMAP
3FC0
CC60
CC60
CC60
0FC0
0C70
0C30
0C30
0C30
0C30
1FC0
ENDCHAR
STARTCHAR 0186
ENCODING 390
SWIDTH 555 0
DWIDTH 10 0
BBX 9 11 0 0
BITMAP
7C00
8300
0100
0180
0180
0180
4180
C180
C100
C200
7C00
ENDCHAR
STARTCHAR 0189
ENCODING 393
SWIDTH 611 0
DWIDTH 11 0
BBX 9 11 1 0
BITMAP
FE00
6300
6100
6180
6180
F980
6180
6180
6100
6300
FC00
ENDCHAR
STARTCHAR 018A
ENCODING 394
SWIDTH 777 0
DWIDTH 14 0
BBX 13 11 0 0
BITMAP
3FC0
CC70
CC30
CC18
0C18
0C18
0C18
0C18
0C30
0C70
1FC0
ENDCHAR
STARTCHAR 018E
ENCODING 398
SWIDTH 555 0
DWIDTH 10 0
BBX 8 11 1 0
BITMAP
FF
86
86
06
7E
06
06
06
86
86
FF
ENDCHAR
STARTCHAR 0190
ENCODING 400
SWIDTH 500 0
DWIDTH 9 0
BBX 8 11 1 0
BITMAP
3F
62
40
40
60
78
60
C0
C3
FE
78
ENDCHAR
STARTCHAR 0192
ENCODING 402
SWIDTH 333 0
DWIDTH 6 0
BBX 10 17 -3 -4
BITMAP
03C0
0480
0C00
0C00
0C00
1F80
0C00
0C00
0C00
0C00
0C00
0C00
0C00
0C00
8C00
F800
F000
ENDCHAR
STARTCHAR 0197
ENCODING 407
SWIDTH 333 0
DWIDTH 6 0
BBX 5 11 1 0
BITMAP
F0
60
60
60
60
F8
60
60
60
60
F0
ENDCHAR
STARTCHAR 0198
ENCODING 408
SWIDTH 666 0
DWIDTH 12 0
BBX 11 11 1 0
BITMAP
F1C0
63C0
6740
6E40
6C00
7800
6C00
6600
6300
6180
F0E0
ENDCHAR
STARTCHAR 0199
ENCODING 409
SWIDTH 555 0
DWIDTH 10 0
BBX 9 13 1 0
BITMAP
0F00
3300
2000
6000
6000
6780
6600
6C00
7800
6C00
6600
6700
F380
ENDCHAR
STARTCHAR 019A
ENCODING 410
SWIDTH 333 0
DWIDTH 6 0
BBX 6 14 0 0
BITMAP
30
70
30
30
30
30
30
FC
30
30
30
30
30
78
ENDCHAR
STARTCHAR 019D
ENCODING 413
SWIDTH 666 0
DWIDTH 12 0
BBX 13 14 -2 -3
BITMAP
1C38
0C10
0E10
0F10
0B10
0990
08D0
08F0
0870
0830
0810
0800
9000
E000
ENDCHAR
STARTCHAR 019F
ENCODING 415
SWIDTH 611 0
DWIDTH 11 0
BBX 10 11 0 0
BITMAP
1E00
2380
6180
C0C0
C0C0
FFC0
C0C0
C0C0
6080
7100
1E00
ENDCHAR
STARTCHAR 01A0
ENCODING 416
SWIDTH 611 0
DWIDTH 11 0
BBX 11 13 0 0
BITMAP
0040
00E0
1FC0
2180
4080
C0C0
C0C0
C0C0
C0C0
C0C0
4080
6100
1E00
ENDCHAR
STARTCHAR 01A1
ENCODING 417
SWIDTH 666 0
DWIDTH 12 0
BBX 10 10 1 0
BITMAP
00C0
01C0
3E80
4700
C300
C300
C300
C300
6200
3C00
ENDCHAR
STARTCHAR 01A9
ENCODING 425
SWIDTH 555 0
DWIDTH 10 0
BBX 9 11 0 0
BITMAP
7F80
7080
3080
1800
1C00
0C00
1800
1080
2080
7F80
FF80
ENDCHAR
STARTCHAR 01AA
ENCODING 426
SWIDTH 388 0
DWIDTH 7 0
BBX 8 18 1 -4
BITMAP
70
90
98
98
F8
18
10
30
30
30
30
30
30
30
30
33
33
1C
ENDCHAR
STARTCHAR 01AF
ENCODING 431
SWIDTH 722 0
DWIDTH 13 0
BBX 12 13 1 0
BITMAP
0030
0070
F1E0
60C0
6080
6080
6080
6080
6080
6080
6080
3100
1E00
ENDCHAR
STARTCHAR 01B0
ENCODING 432
SWIDTH 666 0
DWIDTH 12 0
BBX 12 10 0 0
BITMAP
0030
E070
63A0
61C0
6180
6180
6180
6180
7FC0
3980
ENDCHAR
STARTCHAR 01B3
ENCODING 435
SWIDTH 722 0
DWIDTH 13 0
BBX 12 11 0 0
BITMAP
E0E0
70D0
3190
3B20
1A00
0E00
0C00
0C00
0C00
0C00
1E00
ENDCHAR
STARTCHAR 01B4
ENCODING 436
SWIDTH 500 0
DWIDTH 9 0
BBX 14 16 -1 -4
BITMAP
003C
0078
0040
00C0
7880
3180
1900
1900
0F00
0E00
0E00
0400
0400
0C00
7800
F000
ENDCHAR
STARTCHAR 01B7
ENCODING 439
SWIDTH 555 0
DWIDTH 10 0
BBX 7 11 2 0
BITMAP
7E
C4
8C
18
3E
46
02
02
42
C2
7C
ENDCHAR
STARTCHAR 01CD
ENCODING 461
SWIDTH 611 0
DWIDTH 11 0
BBX 11 16 0 0
BITMAP
1100
1B80
0E00
0E00
0000
0600
0E00
0E00
0B00
1300
1300
3F80
2180
21C0
60C0
F1E0
ENDCHAR
STARTCHAR 01CE
ENCODING 462
SWIDTH 500 0
DWIDTH 9 0
BBX 8 13 1 0
BITMAP
44
EE
38
10
00
3C
66
C6
1E
66
C6
CF
76
ENDCHAR
STARTCHAR 01CF
ENCODING 463
SWIDTH 333 0
DWIDTH 6 0
BBX 6 16 0 0
BITMAP
84
D8
78
30
00
78
30
30
30
30
30
30
30
30
30
78
ENDCHAR
STARTCHAR 01D0
ENCODING 464
SWIDTH 277 0
DWIDTH 5 0
BBX 6 13 0 0
BITMAP
84
D8
70
30
00
30
70
30
30
30
30
30
78
ENDCHAR
STARTCHAR 01D1
ENCODING 465
SWIDTH 611 0
DWIDTH 11 0
BBX 10 16 0 0
BITMAP
1100
1B80
0E00
0E00
0000
1E00
2180
4080
C0C0
C0C0
C0C0
C0C0
C0C0
4080
6100
1E00
ENDCHAR
STARTCHAR 01D2
ENCODING 466
SWIDTH 500 0
DWIDTH 9 0
BBX 7 13 1 0
BITMAP
42
2C
3C
18
00
38
44
C6
C6
C6
C6
44
38
ENDCHAR
STARTCHAR 01D3
ENCODING 467
SWIDTH 666 0
DWIDTH 12 0
BBX 10 16 1 0
BITMAP
2100
1B00
1E00
0C00
0000
F1C0
6080
6080
6080
6080
6080
6080
6080
6080
3100
1E00
ENDCHAR
STARTCHAR 01D4
ENCODING 468
SWIDTH 555 0
DWIDTH 10 0
BBX 10 13 0 0
BITMAP
2100
1A00
1E00
0C00
0000
E380
6180
6180
6180
6180
6180
7FC0
3980
ENDCHAR
STARTCHAR 01D5
ENCODING 469
SWIDTH 666 0
DWIDTH 12 0
BBX 10 17 1 0
BITMAP
3F80
4000
2100
2180
2100
0000
F1C0
6080
6080
6080
6080
6080
6080
6080
6080
3100
1E00
ENDCHAR
STARTCHAR 01D6
ENCODING 470
SWIDTH 555 0
DWIDTH 10 0
BBX 10 15 0 0
BITMAP
7F80
0000
0000
2100
2180
2100
0000
E380
6180
6180
6180
6180
6180
7FC0
3980
ENDCHAR
STARTCHAR 01D7
ENCODING 471
SWIDTH 666 0
DWIDTH 12 0
BBX 10 19 1 0
BITMAP
0200
0700
0E00
1800
2100
2180
2100
0000
F1C0
6080
6080
6080
6080
6080
6080
6080
6080
3100
1E00
ENDCHAR
STARTCHAR 01D8
ENCODING 472
SWIDTH 555 0
DWIDTH 10 0
BBX 10 16 0 0
BITMAP
0700
0600
0C00
0800
2100
2180
2100
0000
E380
6180
6180
6180
6180
6180
7FC0
3980
ENDCHAR
STARTCHAR 01D9
ENCODING 473
SWIDTH 666 0
DWIDTH 12 0
BBX 10 19 1 0
BITMAP
2100
3300
1E00
0C00
2100
2180
2100
0000
F1C0
6080
6080
6080
6080
6080
6080
6080
6080
3100
1E00
ENDCHAR
STARTCHAR 01DA
ENCODING 474
SWIDTH 555 0
DWIDTH 10 0
BBX 10 16 0 0
BITMAP
3100
1E00
0E00
0C00
2100
2180
2100
0000
E380
6180
6180
6180
6180
6180
7FC0
3980
ENDCHAR
STARTCHAR 01DB
ENCODING 475
SWIDTH 666 0
DWIDTH 12 0
BBX 10 19 1 0
BITMAP
1000
3800
1C00
0600
2100
2180
2100
0000
F1C0
6080
6080
6080
6080
6080
6080
6080
6080
3100
1E00
ENDCHAR
STARTCHAR 01DC
ENCODING 476
SWIDTH 555 0
DWIDTH 10 0
BBX 10 16 0 0
BITMAP
3800
1800
0C00
0400
2100
2180
2100
0000
E380
6180
6180
6180
6180
6180
7FC0
3980
ENDCHAR
STARTCHAR 01DD
ENCODING 477
SWIDTH 500 0
DWIDTH 9 0
BBX 7 8 1 0
BITMAP
78
8C
06
06
FE
C6
C4
78
ENDCHAR
STARTCHAR 01DE
ENCODING 478
SWIDTH 611 0
DWIDTH 11 0
BBX 11 17 0 0
BITMAP
3F80
0000
1080
3180
3180
0000
0600
0E00
0E00
0B00
1300
1300
3F80
2180
21C0
60C0
F1E0
ENDCHAR
STARTCHAR 01DF
ENCODING 479
SWIDTH 500 0
DWIDTH 9 0
BBX 8 15 1 0
BITMAP
FE
00
00
C2
C6
86
00
3C
66
C6
1E
66
C6
CF
76
ENDCHAR
STARTCHAR 01E0
ENCODING 480
SWIDTH 611 0
DWIDTH 11 0
BBX 11 17 0 0
BITMAP
3F80
0000
0400
0C00
0C00
0000
0600
0E00
0E00
0B00
1300
1300
3F80
2180
21C0
60C0
F1E0
ENDCHAR
STARTCHAR 01E1
ENCODING 481
SWIDTH 500 0
DWIDTH 9 0
BBX 8 15 1 0
BITMAP
FE
00
00
30
30
20
00
3C
66
C6
1E
66
C6
CF
76
ENDCHAR
STARTCHAR 01E2
ENCODING 482
SWIDTH 833 0
DWIDTH 15 0
BBX 14 14 0 0
BITMAP
07F0
0000
0000
0FFC
078C
0588
0D80
0980
1FF8
1980
1180
3184
2184
F3FC
ENDCHAR
STARTCHAR 01E3
ENCODING 483
SWIDTH 722 0
DWIDTH 13 0
BBX 11 12 1 0
BITMAP
3FC0
0000
0000
0000
3DC0
6620
C420
3FE0
4400
C620
FFC0
7380
ENDCHAR
STARTCHAR 01E6
ENCODING 486
SWIDTH 611 0
DWIDTH 11 0
BBX 11 16 0 0
BITMAP
1080
1B00
0F00
0600
0000
0FC0
31C0
4000
C000
C000
C000
C1E0
C0C0
40C0
70C0
1F80
ENDCHAR
STARTCHAR 01E7
ENCODING 487
SWIDTH 500 0
DWIDTH 9 0
BBX 10 17 0 -4
BITMAP
2300
3600
1C00
0C00
0000
3EC0
C100
8100
C100
3E00
7000
FE00
FF80
E380
C080
C100
3E00
ENDCHAR
STARTCHAR 01E8
ENCODING 488
SWIDTH 611 0
DWIDTH 11 0
BBX 10 16 1 0
BITMAP
2200
3700
1C00
1C00
0000
F3C0
6300
6600
6C00
6800
7800
6C00
6600
6700
6380
F1C0
ENDCHAR
STARTCHAR 01E9
ENCODING 489
SWIDTH 555 0
DWIDTH 10 0
BBX 9 18 1 0
BITMAP
6200
3E00
1C00
1800
6000
E000
6000
6000
6000
6000
6780
6600
6C00
7800
6C00
6600
6700
F380
ENDCHAR
STARTCHAR 01EE
ENCODING 494
SWIDTH 555 0
DWIDTH 10 0
BBX 7 16 2 0
BITMAP
84
C8
78
30
00
7E
C4
8C
18
3E
46
02
02
42
C2
7C
ENDCHAR
STARTCHAR 01EF
ENCODING 495
SWIDTH 500 0
DWIDTH 9 0
BBX 7 17 1 -4
BITMAP
84
7C
78
30
00
FE
8C
88
18
30
7C
06
06
06
46
C4
78
ENDCHAR
STARTCHAR 01F4
ENCODING 500
SWIDTH 611 0
DWIDTH 11 0
BBX 11 16 0 0
BITMAP
0100
0380
0700
0C00
0000
0FC0
31C0
4000
C000
C000
C000
C1E0
C0C0
40C0
70C0
1F80
ENDCHAR
STARTCHAR 01F5
ENCODING 501
SWIDTH 500 0
DWIDTH 9 0
BBX 10 17 0 -4
BITMAP
0600
0E00
0C00
1800
0000
3EC0
C100
8100
C100
3E00
7000
FE00
FF80
E380
C080
C100
3E00
ENDCHAR
STARTCHAR 01F8
ENCODING 504
SWIDTH 666 0
DWIDTH 12 0
BBX 10 16 1 0
BITMAP
1000
3800
1C00
0600
0000
E1C0
6080
7080
7880
5C80
4C80
4680
4780
4380
4180
E180
ENDCHAR
STARTCHAR 01F9
ENCODING 505
SWIDTH 555 0
DWIDTH 10 0
BBX 9 13 1 0
BITMAP
3000
3800
1800
0C00
0000
6E00
FF00
7300
6300
6300
6300
6300
F780
ENDCHAR
STARTCHAR 01FA
ENCODING 506
SWIDTH 611 0
DWIDTH 11 0
BBX 11 20 0 0
BITMAP
0200
0380
0700
0C00
0600
0A00
0A00
0E00
0000
0600
0E00
0E00
0B00
1300
1300
3F80
2180
21C0
60C0
F1E0
ENDCHAR
STARTCHAR 01FB
ENCODING 507
SWIDTH 500 0
DWIDTH 9 0
BBX 8 17 1 0
BITMAP
0C
1C
18
30
18
28
28
30
00
3C
66
C6
1E
66
C6
CF
76
ENDCHAR
STARTCHAR 01FC
ENCODING 508
SWIDTH 833 0
DWIDTH 15 0
BBX 14 16 0 0
BITMAP
0040
0070
00C0
0180
0000
0FFC
078C
0588
0D80
0980
1FF8
1980
1180
3184
2184
F3FC
ENDCHAR
STARTCHAR 01FD
ENCODING 509
SWIDTH 722 0
DWIDTH 13 0
BBX 11 13 1 0
BITMAP
0380
0300
0600
0400
0000
3DC0
6620
C420
3FE0
4400
C620
FFC0
7380
ENDCHAR
STARTCHAR 01FE
ENCODING 510
SWIDTH 611 0
DWIDTH 11 0
BBX 10 16 0 0
BITMAP
0200
0380
0600
0C00
0000
1FC0
2380
6380
C3C0
C6C0
CCC0
D8C0
F0C0
7180
7100
FE00
ENDCHAR
STARTCHAR 01FF
ENCODING 511
SWIDTH 500 0
DWIDTH 9 0
BBX 7 13 1 0
BITMAP
0C
0E
18
10
02
3A
44
CE
D6
E6
E6
44
F8
ENDCHAR
STARTCHAR 021E
ENCODING 542
SWIDTH 666 0
DWIDTH 12 0
BBX 10 16 1 0
BITMAP
2100
1B00
1E00
0C00
0000
F3C0
6180
6180
6180
6180
7F80
6180
6180
6180
6180
F3C0
ENDCHAR
STARTCHAR 021F
ENCODING 543
SWIDTH 555 0
DWIDTH 10 0
BBX 9 18 1 0
BITMAP
6200
3600
1C00
1800
6000
E000
6000
6000
6000
6000
6600
7F00
7300
6300
6300
6300
6300
F780
ENDCHAR
STARTCHAR 0226
ENCODING 550
SWIDTH 611 0
DWIDTH 11 0
BBX 11 15 0 0
BITMAP
0400
0C00
0C00
0000
0600
0E00
0E00
0B00
1300
1300
3F80
2180
21C0
60C0
F1E0
ENDCHAR
STARTCHAR 0227
ENCODING 551
SWIDTH 500 0
DWIDTH 9 0
BBX 8 12 1 0
BITMAP
30
30
20
00
3C
66
C6
1E
66
C6
CF
76
ENDCHAR
STARTCHAR 0228
ENCODING 552
SWIDTH 500 0
DWIDTH 9 0
BBX 9 15 0 -4
BITMAP
FF00
3100
3100
3000
3000
3F00
3000
3000
3080
3080
FF80
0800
0C00
0C00
1800
ENDCHAR
STARTCHAR 0229
ENCODING 553
SWIDTH 444 0
DWIDTH 8 0
BBX 6 12 1 -4
BITMAP
38
4C
CC
FC
C0
C0
6C
70
20
30
10
20
ENDCHAR
STARTCHAR 022A
ENCODING 554
SWIDTH 611 0
DWIDTH 11 0
BBX 10 17 0 0
BITMAP
3F80
0000
1080
3180
3180
0000
1E00
2180
4080
C0C0
C0C0
C0C0
C0C0
C0C0
4080
6100
1E00
ENDCHAR
STARTCHAR 022B
ENCODING 555
SWIDTH 500 0
DWIDTH 9 0
BBX 8 15 1 0
BITMAP
FF
00
00
42
C2
42
00
38
44
C6
C6
C6
C6
44
38
ENDCHAR
STARTCHAR 022C
ENCODING 556
SWIDTH 611 0
DWIDTH 11 0
BBX 10 17 0 0
BITMAP
3F80
0000
0C80
1F80
2700
0000
1E00
2180
4080
C0C0
C0C0
C0C0
C0C0
C0C0
4080
6100
1E00
ENDCHAR
STARTCHAR 022D
ENCODING 557
SWIDTH 500 0
DWIDTH 9 0
BBX 8 15 1 0
BITMAP
FF
00
00
32
7C
80
00
38
44
C6
C6
C6
C6
44
38
ENDCHAR
STARTCHAR 022E
ENCODING 558
SWIDTH 611 0
DWIDTH 11 0
BBX 10 15 0 0
BITMAP
0400
0C00
0C00
0000
1E00
2180
4080
C0C0
C0C0
C0C0
C0C0
C0C0
4080
6100
1E00
ENDCHAR
STARTCHAR 022F
ENCODING 559
SWIDTH 500 0
DWIDTH 9 0
BBX 7 12 1 0
BITMAP
10
30
10
00
38
44
C6
C6
C6
C6
44
38
ENDCHAR
STARTCHAR 0230
ENCODING 560
SWIDTH 611 0
DWIDTH 11 0
BBX 10 17 0 0
BITMAP
3F80
0000
0400
0C00
0C00
0000
1E00
2180
4080
C0C0
C0C0
C0C0
C0C0
C0C0
4080
6100
1E00
ENDCHAR
STARTCHAR 0231
ENCODING 561
SWIDTH 500 0
DWIDTH 9 0
BBX 8 15 1 0
BITMAP
FF
00
00
10
30
10
00
38
44
C6
C6
C6
C6
44
38
ENDCHAR
STARTCHAR 0232
ENCODING 562
SWIDTH 611 0
DWIDTH 11 0
BBX 10 14 1 0
BITMAP
7F00
0000
0000
E3C0
7180
3100
3B00
1A00
0E00
0C00
0C00
0C00
0C00
1E00
ENDCHAR
STARTCHAR 0233
ENCODING 563
SWIDTH 500 0
DWIDTH 9 0
BBX 10 16 -1 -4
BITMAP
3FC0
0000
0000
0000
79C0
3080
1980
1900
0F00
0E00
0E00
0600
0400
0C00
7800
F000
ENDCHAR
STARTCHAR 0237
ENCODING 567
SWIDTH 277 0
DWIDTH 5 0
BBX 6 12 -2 -4
BITMAP
1C
0C
0C
0C
0C
0C
0C
0C
0C
8C
F8
E0
ENDCHAR
STARTCHAR 023D
ENCODING 573
SWIDTH 500 0
DWIDTH 9 0
BBX 8 11 1 0
BITMAP
F0
60
60
60
60
FC
60
60
61
61
FF
ENDCHAR
STARTCHAR 0241
ENCODING 577
SWIDTH 500 0
DWIDTH 9 0
BBX 8 11 0 0
BITMAP
3E
43
C3
83
06
0C
18
18
18
18
3C
ENDCHAR
STARTCHAR 0242
ENCODING 578
SWIDTH 444 0
DWIDTH 8 0
BBX 6 8 1 0
BITMAP
78
CC
CC
08
10
30
30
78
ENDCHAR
STARTCHAR 0244
ENCODING 580
SWIDTH 666 0
DWIDTH 12 0
BBX 10 11 1 0
BITMAP
F1C0
6080
6080
6080
6080
FFC0
6080
6080
6080
3100
1E00
ENDCHAR
STARTCHAR 0245
ENCODING 581
SWIDTH 666 0
DWIDTH 12 0
BBX 12 11 0 0
BITMAP
0600
0600
0F00
0B00
1B00
1180
1180
31C0
20C0
20C0
F1F0
ENDCHAR
STARTCHAR 024A
ENCODING 586
SWIDTH 666 0
DWIDTH 12 0
BBX 13 15 1 -4
BITMAP
1E80
2380
4180
C180
C180
C180
C180
C180
6380
7F80
3980
0180
0198
0198
00E0
ENDCHAR
STARTCHAR 024B
ENCODING 587
SWIDTH 555 0
DWIDTH 10 0
BBX 12 12 1 -4
BITMAP
3D00
4300
C300
C300
C300
C300
7F00
3B00
0300
0330
0330
01E0
ENDCHAR
STARTCHAR 0251
ENCODING 593
SWIDTH 555 0
DWIDTH 10 0
BBX 9 8 1 0
BITMAP
3D00
4300
C300
C300
C300
C300
7F80
3B00
ENDCHAR
STARTCHAR 0253
ENCODING 595
SWIDTH 555 0
DWIDTH 10 0
BBX 8 13 1 0
BITMAP
1F
23
40
C0
C0
CE
FF
E1
C1
C1
C2
C2
7C
ENDCHAR
STARTCHAR 0254
ENCODING 596
SWIDTH 500 0
DWIDTH 9 0
BBX 7 8 1 0
BITMAP
7C
84
06
06
C6
C6
C4
78
ENDCHAR
STARTCHAR 0256
ENCODING 598
SWIDTH 555 0
DWIDTH 10 0
BBX 12 18 1 -4
BITMAP
0300
0700
0300
0300
0300
0300
3F00
4300
C300
C300
C300
C300
7F00
3B00
0300
0330
0330
01E0
ENDCHAR
STARTCHAR 0257
ENCODING 599
SWIDTH 555 0
DWIDTH 10 0
BBX 12 13 1 0
BITMAP
00E0
0130
0300
0300
0300
3F00
4300
C300
C300
C300
C300
7F80
3B00
ENDCHAR
STARTCHAR 0259
ENCODING 601
SWIDTH 500 0
DWIDTH 9 0
BBX 7 8 1 0
BITMAP
78
8C
06
06
FE
C6
C4
78
ENDCHAR
STARTCHAR 025B
ENCODING 603
SWIDTH 444 0
DWIDTH 8 0
BBX 6 8 1 0
BITMAP
3C
44
44
60
70
C0
C4
78
ENDCHAR
STARTCHAR 0263
ENCODING 611
SWIDTH 500 0
DWIDTH 9 0
BBX 9 12 0 -4
BITMAP
F380
6300
7200
3600
3C00
1C00
1C00
1C00
1600
2200
2200
1C00
ENDCHAR
STARTCHAR 0268
ENCODING 616
SWIDTH 277 0
DWIDTH 5 0
BBX 4 12 1 0
BITMAP
30
70
00
00
E0
60
60
F0
60
60
60
F0
ENDCHAR
STARTCHAR 0269
ENCODING 617
SWIDTH 333 0
DWIDTH 6 0
BBX 5 8 1 0
BITMAP
E0
60
60
60
60
60
78
70
ENDCHAR
STARTCHAR 026B
ENCODING 619
SWIDTH 388 0
DWIDTH 7 0
BBX 6 14 0 0
BITMAP
30
70
30
30
30
30
74
FC
B8
30
30
30
30
78
ENDCHAR
STARTCHAR 0272
ENCODING 626
SWIDTH 555 0
DWIDTH 10 0
BBX 12 12 -2 -4
BITMAP
1DC0
0FE0
0E60
0C60
0C60
0C60
0C60
0CF0
0C00
8C00
F800
F000
ENDCHAR
STARTCHAR 0275
ENCODING 629
SWIDTH 500 0
DWIDTH 9 0
BBX 7 8 1 0
BITMAP
38
4C
C6
FE
C6
C6
64
38
ENDCHAR
STARTCHAR 0283
ENCODING 643
SWIDTH 222 0
DWIDTH 4 0
BBX 10 17 -3 -4
BITMAP
03C0
0480
0C00
0C00
0C00
0C00
0C00
0C00
0C00
0C00
0C00
0C00
0C00
0C00
8800
F800
F000
ENDCHAR
STARTCHAR 0289
ENCODING 649
SWIDTH 555 0
DWIDTH 10 0
BBX 9 8 0 0
BITMAP
E700
6300
6300
FF80
6300
6300
7F80
3B00
ENDCHAR
STARTCHAR 028A
ENCODING 650
SWIDTH 500 0
DWIDTH 9 0
BBX 7 8 1 0
BITMAP
E6
44
44
C2
C2
C2
64
38
ENDCHAR
STARTCHAR 028C
ENCODING 652
SWIDTH 500 0
DWIDTH 9 0
BBX 9 8 0 0
BITMAP
0800
1C00
1C00
3E00
2600
2700
4300
E780
ENDCHAR
STARTCHAR 0292
ENCODING 658
SWIDTH 500 0
DWIDTH 9 0
BBX 7 12 1 -4
BITMAP
FE
8C
88
18
30
7C
06
06
06
46
C4
78
ENDCHAR
STARTCHAR 0294
ENCODING 660
SWIDTH 500 0
DWIDTH 9 0
BBX 7 14 1 0
BITMAP
3C
46
C6
C6
06
0C
18
10
30
30
30
30
30
78
ENDCHAR
STARTCHAR 02A0
ENCODING 672
SWIDTH 555 0
DWIDTH 10 0
BBX 12 17 1 -4
BITMAP
00E0
0130
0300
0300
0300
3F00
4300
C300
C300
C300
C300
7F00
3B00
0300
0300
0300
0780
ENDCHAR
STARTCHAR 02BC
ENCODING 700
SWIDTH 222 0
DWIDTH 4 0
BBX 2 5 1 8
BITMAP
40
C0
40
40
40
ENDCHAR
STARTCHAR 02C0
ENCODING 704
SWIDTH 333 0
DWIDTH 6 0
BBX 5 7 0 7
BITMAP
70
88
88
10
20
20
20
ENDCHAR
STARTCHAR 02C6
ENCODING 710
SWIDTH 333 0
DWIDTH 6 0
BBX 6 4 0 9
BITMAP
30
38
6C
84
ENDCHAR
STARTCHAR 02C7
ENCODING 711
SWIDTH 333 0
DWIDTH 6 0
BBX 6 4 0 9
BITMAP
84
6C
38
30
ENDCHAR
STARTCHAR 02C9
ENCODING 713
SWIDTH 500 0
DWIDTH 9 0
BBX 7 1 1 11
BITMAP
FE
ENDCHAR
STARTCHAR 02CA
ENCODING 714
SWIDTH 222 0
DWIDTH 4 0
BBX 4 4 0 9
BITMAP
30
60
40
80
ENDCHAR
STARTCHAR 02CB
ENCODING 715
SWIDTH 222 0
DWIDTH 4 0
BBX 4 4 0 9
BITMAP
C0
60
30
10
ENDCHAR
STARTCHAR 02CD
ENCODING 717
SWIDTH 500 0
DWIDTH 9 0
BBX 7 1 1 -2
BITMAP
FE
ENDCHAR
STARTCHAR 02D7
ENCODING 727
SWIDTH 333 0
DWIDTH 6 0
BBX 6 1 0 4
BITMAP
FC
ENDCHAR
STARTCHAR 02D8
ENCODING 728
SWIDTH 333 0
DWIDTH 6 0
BBX 6 4 0 9
BITMAP
84
C4
7C
38
ENDCHAR
STARTCHAR 02D9
ENCODING 729
SWIDTH 222 0
DWIDTH 4 0
BBX 2 3 1 9
BITMAP
40
C0
C0
ENDCHAR
STARTCHAR 02DA
ENCODING 730
SWIDTH 277 0
DWIDTH 5 0
BBX 4 4 0 9
BITMAP
70
90
90
E0
ENDCHAR
STARTCHAR 02DB
ENCODING 731
SWIDTH 277 0
DWIDTH 5 0
BBX 3 4 2 -4
BITMAP
40
80
A0
C0
ENDCHAR
STARTCHAR 02DC
ENCODING 732
SWIDTH 388 0
DWIDTH 7 0
BBX 7 2 0 10
BITMAP
72
FC
ENDCHAR
STARTCHAR 02DD
ENCODING 733
SWIDTH 388 0
DWIDTH 7 0
BBX 6 4 0 9
BITMAP
2C
7C
48
D0
ENDCHAR
STARTCHAR 0300
ENCODING 768
SWIDTH 0 0
DWIDTH 0 0
BBX 5 4 -7 9
BITMAP
60
E0
30
18
ENDCHAR
STARTCHAR 0301
ENCODING 769
SWIDTH 0 0
DWIDTH 0 0
BBX 4 4 -6 9
BITMAP
30
60
40
80
ENDCHAR
STARTCHAR 0302
ENCODING 770
SWIDTH 0 0
DWIDTH 0 0
BBX 6 4 -8 9
BITMAP
10
38
6C
C4
ENDCHAR
STARTCHAR 0303
ENCODING 771
SWIDTH 0 0
DWIDTH 0 0
BBX 7 2 -8 10
BITMAP
72
FC
ENDCHAR
STARTCHAR 0304
ENCODING 772
SWIDTH 0 0
DWIDTH 0 0
BBX 7 1 -8 11
BITMAP
FE
ENDCHAR
STARTCHAR 0306
ENCODING 774
SWIDTH 0 0
DWIDTH 0 0
BBX 7 4 -8 9
BITMAP
84
46
7C
38
ENDCHAR
STARTCHAR 0307
ENCODING 775
SWIDTH 0 0
DWIDTH 0 0
BBX 2 3 -6 9
BITMAP
C0
C0
80
ENDCHAR
STARTCHAR 0308
ENCODING 776
SWIDTH 0 0
DWIDTH 0 0
BBX 7 3 -8 9
BITMAP
C2
C6
86
ENDCHAR
STARTCHAR 0309
ENCODING 777
SWIDTH 0 0
DWIDTH 0 0
BBX 3 4 -6 9
BITMAP
60
E0
60
60
ENDCHAR
STARTCHAR 030A
ENCODING 778
SWIDTH 0 0
DWIDTH 0 0
BBX 3 4 -6 9
BITMAP
60
A0
A0
C0
ENDCHAR
STARTCHAR 030B
ENCODING 779
SWIDTH 0 0
DWIDTH 0 0
BBX 6 4 -7 9
BITMAP
2C
7C
48
D0
ENDCHAR
STARTCHAR 030C
ENCODING 780
SWIDTH 0 0
DWIDTH 0 0
BBX 6 4 -7 9
BITMAP
88
DC
70
20
ENDCHAR
STARTCHAR 031B
ENCODING 795
SWIDTH 55 0
DWIDTH 1 0
BBX 3 4 -2 6
BITMAP
20
60
40
80
ENDCHAR
STARTCHAR 0323
ENCODING 803
SWIDTH 0 0
DWIDTH 0 0
BBX 2 3 -6 -4
BITMAP
C0
C0
80
ENDCHAR
STARTCHAR 0327
ENCODING 807
SWIDTH 0 0
DWIDTH 0 0
BBX 3 4 -6 -4
BITMAP
40
60
60
C0
ENDCHAR
STARTCHAR 0328
ENCODING 808
SWIDTH 0 0
DWIDTH 0 0
BBX 3 4 -7 -4
BITMAP
40
80
A0
C0
ENDCHAR
STARTCHAR 0331
ENCODING 817
SWIDTH 0 0
DWIDTH 0 0
BBX 7 1 -8 -3
BITMAP
FE
ENDCHAR
STARTCHAR 033F
ENCODING 831
SWIDTH 0 0
DWIDTH 0 0
BBX 10 3 -9 11
BITMAP
FFC0
0000
FFC0
ENDCHAR
STARTCHAR 035E
ENCODING 862
SWIDTH 0 0
DWIDTH 0 0
BBX 12 1 -6 15
BITMAP
FFF0
ENDCHAR
STARTCHAR 035F
ENCODING 863
SWIDTH 0 0
DWIDTH 0 0
BBX 12 1 -6 -6
BITMAP
FFF0
ENDCHAR
STARTCHAR 03A0
ENCODING 928
SWIDTH 666 0
DWIDTH 12 0
BBX 10 11 1 0
BITMAP
FFC0
6180
6180
6180
6180
6180
6180
6180
6180
6180
F3C0
ENDCHAR
STARTCHAR 03A9
ENCODING 937
SWIDTH 666 0
DWIDTH 12 0
BBX 10 11 1 0
BITMAP
1F00
6180
C0C0
C0C0
C0C0
C0C0
4080
4140
A240
F3C0
F3C0
ENDCHAR
STARTCHAR 03C0
ENCODING 960
SWIDTH 555 0
DWIDTH 10 0
BBX 9 8 1 0
BITMAP
3F80
7F00
9400
1400
1400
3400
3700
6600
ENDCHAR
STARTCHAR 1E02
ENCODING 7682
SWIDTH 611 0
DWIDTH 11 0
BBX 9 15 1 0
BITMAP
1000
1000
1000
0000
FE00
6300
6300
6300
7E00
6380
6180
6180
6180
6180
FE00
ENDCHAR
STARTCHAR 1E03
ENCODING 7683
SWIDTH 500 0
DWIDTH 9 0
BBX 8 14 0 0
BITMAP
20
E0
62
66
66
60
6E
7F
61
61
61
61
62
3C
ENDCHAR
STARTCHAR 1E04
ENCODING 7684
SWIDTH 611 0
DWIDTH 11 0
BBX 9 15 1 -4
BITMAP
FE00
6300
6300
6300
7E00
6380
6180
6180
6180
6180
FE00
0000
1000
1000
1000
ENDCHAR
STARTCHAR 1E05
ENCODING 7685
SWIDTH 555 0
DWIDTH 10 0
BBX 9 18 0 -4
BITMAP
6000
E000
6000
6000
6000
6000
6700
7F80
7080
6080
6080
6100
6100
3E00
0000
1800
1800
1000
ENDCHAR
STARTCHAR 1E06
ENCODING 7686
SWIDTH 611 0
DWIDTH 11 0
BBX 9 14 1 -3
BITMAP
FE00
6300
6300
6300
7E00
6380
6180
6180
6180
6180
FE00
0000
0000
FF00
ENDCHAR
STARTCHAR 1E07
ENCODING 7687
SWIDTH 555 0
DWIDTH 10 0
BBX 9 17 0 -3
BITMAP
6000
E000
6000
6000
6000
6000
6700
7F80
7080
6080
6080
6100
6100
3E00
0000
0000
7F00
ENDCHAR
STARTCHAR 1E08
ENCODING 7688
SWIDTH 555 0
DWIDTH 10 0
BBX 9 20 0 -4
BITMAP
0300
0780
0E00
0800
0000
1F00
6300
4000
C000
C000
C000
C000
C000
6000
7080
1F00
0400
0200
0600
1C00
ENDCHAR
STARTCHAR 1E09
ENCODING 7689
SWIDTH 444 0
DWIDTH 8 0
BBX 7 17 1 -4
BITMAP
0C
1C
18
30
00
3E
46
C4
C0
C0
C0
66
38
10
08
18
30
ENDCHAR
STARTCHAR 1E0A
ENCODING 7690
SWIDTH 611 0
DWIDTH 11 0
BBX 9 15 1 0
BITMAP
1000
1000
1000
0000
FE00
6300
6100
6180
6180
6180
6180
6180
6100
6300
FC00
ENDCHAR
STARTCHAR 1E0B
ENCODING 7691
SWIDTH 555 0
DWIDTH 10 0
BBX 9 14 1 0
BITMAP
0300
0700
4300
4300
4300
0300
3F00
4300
C300
C300
C300
C300
7F80
3B00
ENDCHAR
STARTCHAR 1E0C
ENCODING 7692
SWIDTH 611 0
DWIDTH 11 0
BBX 9 15 1 -4
BITMAP
FE00
6300
6100
6180
6180
6180
6180
6180
6100
6300
FC00
0000
1000
1000
1000
ENDCHAR
STARTCHAR 1E0D
ENCODING 7693
SWIDTH 555 0
DWIDTH 10 0
BBX 9 18 1 -4
BITMAP
0300
0700
0300
0300
0300
0300
3F00
4300
C300
C300
C300
C300
7F80
3B00
0000
1000
3000
1000
ENDCHAR
STARTCHAR 1E0E
ENCODING 7694
SWIDTH 611 0
DWIDTH 11 0
BBX 9 14 1 -3
BITMAP
FE00
6300
6100
6180
6180
6180
6180
6180
6100
6300
FC00
0000
0000
FF00
ENDCHAR
STARTCHAR 1E0F
ENCODING 7695
SWIDTH 555 0
DWIDTH 10 0
BBX 9 17 1 -3
BITMAP
0300
0700
0300
0300
0300
0300
3F00
4300
C300
C300
C300
C300
7F80
3B00
0000
0000
FF00
ENDCHAR
STARTCHAR 1E14
ENCODING 7700
SWIDTH 500 0
DWIDTH 9 0
BBX 9 19 0 0
BITMAP
2000
3000
3800
0C00
0000
7F80
0000
0000
FF00
3100
3100
3000
3000
3F00
3000
3000
3080
3080
FF80
ENDCHAR
STARTCHAR 1E15
ENCODING 7701
SWIDTH 500 0
DWIDTH 9 0
BBX 8 16 1 0
BITMAP
70
30
18
08
FF
00
00
00
3C
46
C6
FE
C0
C0
62
3C
ENDCHAR
STARTCHAR 1E16
ENCODING 7702
SWIDTH 500 0
DWIDTH 9 0
BBX 9 19 0 0
BITMAP
0400
0700
0E00
1800
0000
7F80
0000
0000
FF00
3100
3100
3000
3000
3F00
3000
3000
3080
3080
FF80
ENDCHAR
STARTCHAR 1E17
ENCODING 7703
SWIDTH 500 0
DWIDTH 9 0
BBX 8 16 1 0
BITMAP
0C
1E
18
30
FF
00
00
00
3C
46
C6
FE
C0
C0
62
3C
ENDCHAR
STARTCHAR 1E1C
ENCODING 7708
SWIDTH 500 0
DWIDTH 9 0
BBX 9 19 0 -4
BITMAP
2100
3E00
1C00
0000
FF00
3100
3100
3000
3000
3F00
3000
3000
3080
3080
FF80
0800
0C00
0C00
1800
ENDCHAR
STARTCHAR 1E1D
ENCODING 7709
SWIDTH 444 0
DWIDTH 8 0
BBX 7 17 1 -4
BITMAP
42
46
7C
38
00
38
4C
CC
FC
C0
C0
6C
70
20
30
10
20
ENDCHAR
STARTCHAR 1E1E
ENCODING 7710
SWIDTH 500 0
DWIDTH 9 0
BBX 9 15 0 0
BITMAP
1800
1800
1800
0000
FF80
3100
3100
3000
3000
3E00
3000
3000
3000
3000
F800
ENDCHAR
STARTCHAR 1E1F
ENCODING 7711
SWIDTH 333 0
DWIDTH 6 0
BBX 7 17 1 0
BITMAP
20
30
20
00
1E
24
60
60
60
FC
60
60
60
60
60
60
F8
ENDCHAR
STARTCHAR 1E20
ENCODING 7712
SWIDTH 611 0
DWIDTH 11 0
BBX 11 14 0 0
BITMAP
3FC0
0000
0000
0FC0
31C0
4000
C000
C000
C000
C1E0
C0C0
40C0
70C0
1F80
ENDCHAR
STARTCHAR 1E21
ENCODING 7713
SWIDTH 500 0
DWIDTH 9 0
BBX 10 16 0 -4
BITMAP
7F00
0000
0000
0000
3EC0
C100
8100
C100
3E00
7000
FE00
FF80
E380
C080
C100
3E00
ENDCHAR
STARTCHAR 1E22
ENCODING 7714
SWIDTH 666 0
DWIDTH 12 0
BBX 10 15 1 0
BITMAP
0800
0800
0800
0000
F3C0
6180
6180
6180
6180
7F80
6180
6180
6180
6180
F3C0
ENDCHAR
STARTCHAR 1E23
ENCODING 7715
SWIDTH 555 0
DWIDTH 10 0
BBX 9 17 1 0
BITMAP
1800
1800
1000
6000
E000
6000
6000
6000
6000
6600
7F00
7300
6300
6300
6300
6300
F780
ENDCHAR
STARTCHAR 1E24
ENCODING 7716
SWIDTH 666 0
DWIDTH 12 0
BBX 10 15 1 -4
BITMAP
F3C0
6180
6180
6180
6180
7F80
6180
6180
6180
6180
F3C0
0000
0800
0800
0800
ENDCHAR
STARTCHAR 1E25
ENCODING 7717
SWIDTH 555 0
DWIDTH 10 0
BBX 9 18 1 -4
BITMAP
6000
E000
6000
6000
6000
6000
6600
7F00
7300
6300
6300
6300
6300
F780
0000
1800
1800
1000
ENDCHAR
STARTCHAR 1E26
ENCODING 7718
SWIDTH 666 0
DWIDTH 12 0
BBX 10 15 1 0
BITMAP
2100
2180
2100
0000
F3C0
6180
6180
6180
6180
7F80
6180
6180
6180
6180
F3C0
ENDCHAR
STARTCHAR 1E27
ENCODING 7719
SWIDTH 555 0
DWIDTH 10 0
BBX 9 17 1 0
BITMAP
6300
6300
4300
6000
E000
6000
6000
6000
6000
6600
7F00
7300
6300
6300
6300
6300
F780
ENDCHAR
STARTCHAR 1E2E
ENCODING 7726
SWIDTH 333 0
DWIDTH 6 0
BBX 7 19 -1 0
BITMAP
04
0E
1C
30
42
C2
C2
00
3C
18
18
18
18
18
18
18
18
18
3C
ENDCHAR
STARTCHAR 1E2F
ENCODING 7727
SWIDTH 277 0
DWIDTH 5 0
BBX 7 16 -1 0
BITMAP
0E
1C
18
30
42
C2
C2
00
18
38
18
18
18
18
18
3C
ENDCHAR
STARTCHAR 1E30
ENCODING 7728
SWIDTH 611 0
DWIDTH 11 0
BBX 10 16 1 0
BITMAP
0400
0700
0C00
1800
0000
F3C0
6300
6600
6C00
6800
7800
6C00
6600
6700
6380
F1C0
ENDCHAR
STARTCHAR 1E31
ENCODING 7729
SWIDTH 555 0
DWIDTH 10 0
BBX 9 18 1 0
BITMAP
0400
0E00
1C00
3000
6000
E000
6000
6000
6000
6000
6780
6600
6C00
7800
6C00
6600
6700
F380
ENDCHAR
STARTCHAR 1E32
ENCODING 7730
SWIDTH 611 0
DWIDTH 11 0
BBX 10 15 1 -4
BITMAP
F3C0
6300
6600
6C00
6800
7800
6C00
6600
6700
6380
F1C0
0000
0800
1800
1800
ENDCHAR
STARTCHAR 1E33
ENCODING 7731
SWIDTH 555 0
DWIDTH 10 0
BBX 9 18 1 -4
BITMAP
6000
E000
6000
6000
6000
6000
6780
6600
6C00
7800
6C00
6600
6700
F380
0000
1000
1000
1000
ENDCHAR
STARTCHAR 1E34
ENCODING 7732
SWIDTH 611 0
DWIDTH 11 0
BBX 10 14 1 -3
BITMAP
F3C0
6300
6600
6C00
6800
7800
6C00
6600
6700
6380
F1C0
0000
0000
7F00
ENDCHAR
STARTCHAR 1E35
ENCODING 7733
SWIDTH 555 0
DWIDTH 10 0
BBX 9 17 1 -3
BITMAP
6000
E000
6000
6000
6000
6000
6780
6600
6C00
7800
6C00
6600
6700
F380
0000
0000
FF00
ENDCHAR
STARTCHAR 1E36
ENCODING 7734
SWIDTH 500 0
DWIDTH 9 0
BBX 8 15 1 -4
BITMAP
F0
60
60
60
60
60
60
60
61
61
FF
00
30
30
30
ENDCHAR
STARTCHAR 1E37
ENCODING 7735
SWIDTH 277 0
DWIDTH 5 0
BBX 4 18 1 -4
BITMAP
60
E0
60
60
60
60
60
60
60
60
60
60
60
F0
00
40
C0
C0
ENDCHAR
STARTCHAR 1E38
ENCODING 7736
SWIDTH 500 0
DWIDTH 9 0
BBX 8 18 1 -4
BITMAP
FE
00
00
F0
60
60
60
60
60
60
60
61
61
FF
00
30
30
30
ENDCHAR
STARTCHAR 1E39
ENCODING 7737
SWIDTH 277 0
DWIDTH 5 0
BBX 8 21 -1 -4
BITMAP
7F
80
00
18
38
18
18
18
18
18
18
18
18
18
18
18
3C
00
10
30
30
ENDCHAR
STARTCHAR 1E3A
ENCODING 7738
SWIDTH 500 0
DWIDTH 9 0
BBX 8 14 1 -3
BITMAP
F0
60
60
60
60
60
60
60
61
61
FF
00
00
FE
ENDCHAR
STARTCHAR 1E3B
ENCODING 7739
SWIDTH 277 0
DWIDTH 5 0
BBX 8 17 -1 -3
BITMAP
18
38
18
18
18
18
18
18
18
18
18
18
18
3C
00
00
FF
ENDCHAR
STARTCHAR 1E3E
ENCODING 7742
SWIDTH 833 0
DWIDTH 15 0
BBX 15 16 0 0
BITMAP
0080
00E0
0180
0300
0000
701C
3838
3838
3878
2C58
2C58
26D8
2698
2398
2318
F33E
ENDCHAR
STARTCHAR 1E3F
ENCODING 7743
SWIDTH 833 0
DWIDTH 15 0
BBX 14 13 1 0
BITMAP
0180
03C0
0300
0600
0000
6E70
FFF8
6318
6318
6318
6318
6318
F7BC
ENDCHAR
STARTCHAR 1E40
ENCODING 7744
SWIDTH 833 0
DWIDTH 15 0
BBX 15 15 0 0
BITMAP
0300
0300
0300
0000
701C
3838
3838
3878
2C58
2C58
26D8
2698
2398
2318
F33E
ENDCHAR
STARTCHAR 1E41
ENCODING 7745
SWIDTH 833 0
DWIDTH 15 0
BBX 14 12 1 0
BITMAP
0200
0600
0600
0000
6E70
FFF8
6318
6318
6318
6318
6318
F7BC
ENDCHAR
STARTCHAR 1E42
ENCODING 7746
SWIDTH 833 0
DWIDTH 15 0
BBX 15 15 0 -4
BITMAP
701C
3838
3838
3878
2C58
2C58
26D8
2698
2398
2318
F33E
0000
0300
0300
0200
ENDCHAR
STARTCHAR 1E43
ENCODING 7747
SWIDTH 833 0
DWIDTH 15 0
BBX 14 12 1 -4
BITMAP
6E70
FFF8
6318
6318
6318
6318
6318
F7BC
0000
0200
0600
0600
ENDCHAR
STARTCHAR 1E44
ENCODING 7748
SWIDTH 666 0
DWIDTH 12 0
BBX 10 15 1 0
BITMAP
0800
0800
1800
0000
E1C0
6080
7080
7880
5C80
4C80
4680
4780
4380
4180
E180
ENDCHAR
STARTCHAR 1E45
ENCODING 7749
SWIDTH 555 0
DWIDTH 10 0
BBX 9 12 1 0
BITMAP
1800
1800
1000
0000
6E00
FF00
7300
6300
6300
6300
6300
F780
ENDCHAR
STARTCHAR 1E46
ENCODING 7750
SWIDTH 666 0
DWIDTH 12 0
BBX 10 15 1 -4
BITMAP
E1C0
6080
7080
7880
5C80
4C80
4680
4780
4380
4180
E180
0000
0800
0800
1800
ENDCHAR
STARTCHAR 1E47
ENCODING 7751
SWIDTH 555 0
DWIDTH 10 0
BBX 9 12 1 -4
BITMAP
6E00
FF00
7300
6300
6300
6300
6300
F780
0000
1800
1800
1000
ENDCHAR
STARTCHAR 1E48
ENCODING 7752
SWIDTH 666 0
DWIDTH 12 0
BBX 10 14 1 -3
BITMAP
E1C0
6080
7080
7880
5C80
4C80
4680
4780
4380
4180
E180
0000
0000
7F80
ENDCHAR
STARTCHAR 1E49
ENCODING 7753
SWIDTH 555 0
DWIDTH 10 0
BBX 9 11 1 -3
BITMAP
6E00
FF00
7300
6300
6300
6300
6300
F780
0000
0000
7F00
ENDCHAR
STARTCHAR 1E4C
ENCODING 7756
SWIDTH 611 0
DWIDTH 11 0
BBX 10 19 0 0
BITMAP
0100
0380
0600
0800
0C80
1F80
2700
0000
1E00
2180
4080
C0C0
C0C0
C0C0
C0C0
C0C0
4080
6100
1E00
ENDCHAR
STARTCHAR 1E4D
ENCODING 7757
SWIDTH 500 0
DWIDTH 9 0
BBX 7 16 1 0
BITMAP
0E
0C
18
10
32
7C
80
00
38
44
C6
C6
C6
C6
44
38
ENDCHAR
STARTCHAR 1E4E
ENCODING 7758
SWIDTH 611 0
DWIDTH 11 0
BBX 10 18 0 0
BITMAP
3080
3180
3180
0C80
1F80
2700
0000
1E00
2180
4080
C0C0
C0C0
C0C0
C0C0
C0C0
4080
6100
1E00
ENDCHAR
STARTCHAR 1E4F
ENCODING 7759
SWIDTH 500 0
DWIDTH 9 0
BBX 8 15 1 0
BITMAP
43
42
42
32
7C
80
00
38
44
C6
C6
C6
C6
44
38
ENDCHAR
STARTCHAR 1E50
ENCODING 7760
SWIDTH 611 0
DWIDTH 11 0
BBX 10 19 0 0
BITMAP
1000
1800
1C00
0600
0000
3F80
0000
0000
1E00
2180
4080
C0C0
C0C0
C0C0
C0C0
C0C0
4080
6100
1E00
ENDCHAR
STARTCHAR 1E51
ENCODING 7761
SWIDTH 500 0
DWIDTH 9 0
BBX 8 16 1 0
BITMAP
70
30
18
08
FF
00
00
00
38
44
C6
C6
C6
C6
44
38
ENDCHAR
STARTCHAR 1E52
ENCODING 7762
SWIDTH 611 0
DWIDTH 11 0
BBX 10 19 0 0
BITMAP
0200
0380
0700
0C00
0000
3F80
0000
0000
1E00
2180
4080
C0C0
C0C0
C0C0
C0C0
C0C0
4080
6100
1E00
ENDCHAR
STARTCHAR 1E53
ENCODING 7763
SWIDTH 500 0
DWIDTH 9 0
BBX 8 16 1 0
BITMAP
0E
0C
18
10
FF
00
00
00
38
44
C6
C6
C6
C6
44
38
ENDCHAR
STARTCHAR 1E54
ENCODING 7764
SWIDTH 555 0
DWIDTH 10 0
BBX 8 16 1 0
BITMAP
04
0E
1C
30
00
FE
63
63
63
62
7C
60
60
60
60
F0
ENDCHAR
STARTCHAR 1E55
ENCODING 7765
SWIDTH 555 0
DWIDTH 10 0
BBX 8 17 1 -4
BITMAP
0E
0C
18
10
00
6E
FF
61
61
61
61
62
7C
60
60
60
F0
ENDCHAR
STARTCHAR 1E56
ENCODING 7766
SWIDTH 555 0
DWIDTH 10 0
BBX 8 15 1 0
BITMAP
10
30
30
00
FE
63
63
63
62
7C
60
60
60
60
F0
ENDCHAR
STARTCHAR 1E57
ENCODING 7767
SWIDTH 555 0
DWIDTH 10 0
BBX 8 16 1 -4
BITMAP
10
30
10
00
6E
FF
61
61
61
61
62
7C
60
60
60
F0
ENDCHAR
STARTCHAR 1E58
ENCODING 7768
SWIDTH 611 0
DWIDTH 11 0
BBX 10 15 1 0
BITMAP
1000
3000
3000
0000
FE00
6300
6300
6300
6200
7C00
6400
6600
6300
6380
F1C0
ENDCHAR
STARTCHAR 1E59
ENCODING 7769
SWIDTH 444 0
DWIDTH 8 0
BBX 8 12 0 0
BITMAP
18
18
10
00
77
FF
32
32
30
30
30
F8
ENDCHAR
STARTCHAR 1E5A
ENCODING 7770
SWIDTH 611 0
DWIDTH 11 0
BBX 10 15 1 -4
BITMAP
FE00
6300
6300
6300
6200
7C00
6400
6600
6300
6380
F1C0
0000
1000
3000
1000
ENDCHAR
STARTCHAR 1E5B
ENCODING 7771
SWIDTH 444 0
DWIDTH 8 0
BBX 8 12 0 -4
BITMAP
77
FF
32
32
30
30
30
F8
00
60
60
60
ENDCHAR
STARTCHAR 1E5C
ENCODING 7772
SWIDTH 611 0
DWIDTH 11 0
BBX 10 18 1 -4
BITMAP
7F00
8000
0000
FE00
6300
6300
6300
6200
7C00
6400
6600
6300
6380
F1C0
0000
1000
3000
1000
ENDCHAR
STARTCHAR 1E5D
ENCODING 7773
SWIDTH 444 0
DWIDTH 8 0
BBX 8 16 0 -4
BITMAP
7F
00
00
00
77
FF
32
32
30
30
30
F8
00
60
60
60
ENDCHAR
STARTCHAR 1E5E
ENCODING 7774
SWIDTH 611 0
DWIDTH 11 0
BBX 10 14 1 -3
BITMAP
FE00
6300
6300
6300
6200
7C00
6400
6600
6300
6380
F1C0
0000
0000
FF00
ENDCHAR
STARTCHAR 1E5F
ENCODING 7775
SWIDTH 444 0
DWIDTH 8 0
BBX 9 11 -1 -3
BITMAP
3B80
7F80
1900
1900
1800
1800
1800
7C00
0000
0000
FE00
ENDCHAR
STARTCHAR 1E60
ENCODING 7776
SWIDTH 500 0
DWIDTH 9 0
BBX 7 15 1 0
BITMAP
10
30
30
00
3E
C6
80
C0
70
3C
06
02
82
C4
F8
ENDCHAR
STARTCHAR 1E61
ENCODING 7777
SWIDTH 444 0
DWIDTH 8 0
BBX 6 12 1 0
BITMAP
20
60
60
00
F0
98
90
F0
3C
84
C4
F8
ENDCHAR
STARTCHAR 1E62
ENCODING 7778
SWIDTH 500 0
DWIDTH 9 0
BBX 7 15 1 -4
BITMAP
3E
C6
80
C0
70
3C
06
02
82
C4
F8
00
10
30
30
ENDCHAR
STARTCHAR 1E63
ENCODING 7779
SWIDTH 444 0
DWIDTH 8 0
BBX 6 12 1 -4
BITMAP
F0
98
90
F0
3C
84
C4
F8
00
20
60
60
ENDCHAR
STARTCHAR 1E64
ENCODING 7780
SWIDTH 500 0
DWIDTH 9 0
BBX 7 18 1 0
BITMAP
30
30
34
0E
1C
30
00
3E
C6
80
C0
70
3C
06
02
82
C4
F8
ENDCHAR
STARTCHAR 1E65
ENCODING 7781
SWIDTH 444 0
DWIDTH 8 0
BBX 6 15 1 0
BITMAP
40
40
58
1C
30
20
40
F0
98
90
F0
3C
84
C4
F8
ENDCHAR
STARTCHAR 1E66
ENCODING 7782
SWIDTH 500 0
DWIDTH 9 0
BBX 7 18 1 0
BITMAP
10
30
74
6E
38
18
00
3E
C6
80
C0
70
3C
06
02
82
C4
F8
ENDCHAR
STARTCHAR 1E67
ENCODING 7783
SWIDTH 444 0
DWIDTH 8 0
BBX 6 16 1 0
BITMAP
20
60
60
84
D8
70
30
00
F0
98
90
F0
3C
84
C4
F8
ENDCHAR
STARTCHAR 1E68
ENCODING 7784
SWIDTH 500 0
DWIDTH 9 0
BBX 7 19 1 -4
BITMAP
10
30
30
00
3E
C6
80
C0
70
3C
06
02
82
C4
F8
00
10
30
30
ENDCHAR
STARTCHAR 1E69
ENCODING 7785
SWIDTH 444 0
DWIDTH 8 0
BBX 6 16 1 -4
BITMAP
20
60
60
00
F0
98
90
F0
3C
84
C4
F8
00
20
60
60
ENDCHAR
STARTCHAR 1E6A
ENCODING 7786
SWIDTH 555 0
DWIDTH 10 0
BBX 10 15 0 0
BITMAP
0800
0800
0800
0000
FFC0
8C40
8C40
0C00
0C00
0C00
0C00
0C00
0C00
0C00
1E00
ENDCHAR
STARTCHAR 1E6B
ENCODING 7787
SWIDTH 388 0
DWIDTH 7 0
BBX 6 14 0 0
BITMAP
30
20
20
20
60
60
FC
60
60
60
60
64
7C
30
ENDCHAR
STARTCHAR 1E6C
ENCODING 7788
SWIDTH 555 0
DWIDTH 10 0
BBX 10 15 0 -4
BITMAP
FFC0
8C40
8C40
0C00
0C00
0C00
0C00
0C00
0C00
0C00
1E00
0000
0800
0800
0800
ENDCHAR
STARTCHAR 1E6D
ENCODING 7789
SWIDTH 388 0
DWIDTH 7 0
BBX 6 15 0 -4
BITMAP
20
60
60
FC
60
60
60
60
64
7C
30
00
20
30
20
ENDCHAR
STARTCHAR 1E6E
ENCODING 7790
SWIDTH 555 0
DWIDTH 10 0
BBX 10 14 0 -3
BITMAP
FFC0
8C40
8C40
0C00
0C00
0C00
0C00
0C00
0C00
0C00
1E00
0000
0000
7F80
ENDCHAR
STARTCHAR 1E6F
ENCODING 7791
SWIDTH 388 0
DWIDTH 7 0
BBX 7 14 0 -3
BITMAP
20
60
60
FC
60
60
60
60
64
7C
30
00
00
FE
ENDCHAR
STARTCHAR 1E78
ENCODING 7800
SWIDTH 666 0
DWIDTH 12 0
BBX 10 19 1 0
BITMAP
0200
0700
0E00
1800
1880
3F00
2600
0000
F1C0
6080
6080
6080
6080
6080
6080
6080
6080
3100
1E00
ENDCHAR
STARTCHAR 1E79
ENCODING 7801
SWIDTH 555 0
DWIDTH 10 0
BBX 10 16 0 0
BITMAP
0700
0600
0C00
0800
1980
3E00
0000
0000
E380
6180
6180
6180
6180
6180
7FC0
3980
ENDCHAR
STARTCHAR 1E7A
ENCODING 7802
SWIDTH 666 0
DWIDTH 12 0
BBX 10 18 1 0
BITMAP
2100
2180
2100
0000
3F80
4000
0000
F1C0
6080
6080
6080
6080
6080
6080
6080
6080
3100
1E00
ENDCHAR
STARTCHAR 1E7B
ENCODING 7803
SWIDTH 555 0
DWIDTH 10 0
BBX 10 15 0 0
BITMAP
2180
2180
2100
3F80
4000
0000
0000
E380
6180
6180
6180
6180
6180
7FC0
3980
ENDCHAR
STARTCHAR 1E7C
ENCODING 7804
SWIDTH 666 0
DWIDTH 12 0
BBX 12 15 0 0
BITMAP
0C80
1F80
1700
0000
F8F0
7040
3040
3080
1880
1980
1D00
0D00
0F00
0600
0600
ENDCHAR
STARTCHAR 1E7D
ENCODING 7805
SWIDTH 500 0
DWIDTH 9 0
BBX 9 12 0 0
BITMAP
3900
3E00
4000
0000
F380
6100
3300
3200
1E00
1C00
1C00
0800
ENDCHAR
STARTCHAR 1E7E
ENCODING 7806
SWIDTH 666 0
DWIDTH 12 0
BBX 12 15 0 -4
BITMAP
F8F0
7040
3040
3080
1880
1980
1D00
0D00
0F00
0600
0600
0000
0400
0C00
0400
ENDCHAR
STARTCHAR 1E7F
ENCODING 7807
SWIDTH 500 0
DWIDTH 9 0
BBX 9 12 0 -4
BITMAP
F380
6100
3300
3200
1E00
1C00
1C00
0800
0000
1800
1800
1800
ENDCHAR
STARTCHAR 1E80
ENCODING 7808
SWIDTH 833 0
DWIDTH 15 0
BBX 15 16 0 0
BITMAP
0400
0600
0300
0080
0000
F11E
6184
318C
33C8
32C8
32C8
1C78
1C70
1C30
1830
0830
ENDCHAR
STARTCHAR 1E81
ENCODING 7809
SWIDTH 722 0
DWIDTH 13 0
BBX 13 13 0 0
BITMAP
0C00
0600
0300
0100
0000
F238
6310
3320
35A0
35A0
18E0
18C0
18C0
ENDCHAR
STARTCHAR 1E82
ENCODING 7810
SWIDTH 833 0
DWIDTH 15 0
BBX 15 16 0 0
BITMAP
0040
00E0
01C0
0300
0000
F11E
6184
318C
33C8
32C8
32C8
1C78
1C70
1C30
1830
0830
ENDCHAR
STARTCHAR 1E83
ENCODING 7811
SWIDTH 722 0
DWIDTH 13 0
BBX 13 13 0 0
BITMAP
0180
03C0
0300
0600
0000
F238
6310
3320
35A0
35A0
18E0
18C0
18C0
ENDCHAR
STARTCHAR 1E84
ENCODING 7812
SWIDTH 833 0
DWIDTH 15 0
BBX 15 15 0 0
BITMAP
0420
0C20
0C60
0000
F11E
6184
318C
33C8
32C8
32C8
1C78
1C70
1C30
1830
0830
ENDCHAR
STARTCHAR 1E85
ENCODING 7813
SWIDTH 722 0
DWIDTH 13 0
BBX 13 12 0 0
BITMAP
0840
18C0
1840
0000
F238
6310
3320
35A0
35A0
18E0
18C0
18C0
ENDCHAR
STARTCHAR 1E86
ENCODING 7814
SWIDTH 833 0
DWIDTH 15 0
BBX 15 15 0 0
BITMAP
0100
0300
0300
0000
F11E
6184
318C
33C8
32C8
32C8
1C78
1C70
1C30
1830
0830
ENDCHAR
STARTCHAR 1E87
ENCODING 7815
SWIDTH 722 0
DWIDTH 13 0
BBX 13 12 0 0
BITMAP
0200
0600
0600
0000
F238
6310
3320
35A0
35A0
18E0
18C0
18C0
ENDCHAR
STARTCHAR 1E88
ENCODING 7816
SWIDTH 833 0
DWIDTH 15 0
BBX 15 15 0 -4
BITMAP
F11E
6184
318C
33C8
32C8
32C8
1C78
1C70
1C30
1830
0830
0000
0100
0300
0300
ENDCHAR
STARTCHAR 1E89
ENCODING 7817
SWIDTH 722 0
DWIDTH 13 0
BBX 13 12 0 -4
BITMAP
F238
6310
3320
35A0
35A0
18E0
18C0
18C0
0000
0600
0600
0400
ENDCHAR
STARTCHAR 1E8A
ENCODING 7818
SWIDTH 611 0
DWIDTH 11 0
BBX 11 15 0 0
BITMAP
0400
0C00
0C00
0000
F9E0
3080
3980
1F00
0E00
0600
0F00
1B00
3180
21C0
F3E0
ENDCHAR
STARTCHAR 1E8B
ENCODING 7819
SWIDTH 500 0
DWIDTH 9 0
BBX 9 12 0 0
BITMAP
0800
1800
1800
0000
FB80
7300
3E00
1C00
1C00
1600
2300
F780
ENDCHAR
STARTCHAR 1E8C
ENCODING 7820
SWIDTH 611 0
DWIDTH 11 0
BBX 11 15 0 0
BITMAP
1080
3180
3080
0000
F9E0
3080
3980
1F00
0E00
0600
0F00
1B00
3180
21C0
F3E0
ENDCHAR
STARTCHAR 1E8D
ENCODING 7821
SWIDTH 500 0
DWIDTH 9 0
BBX 9 12 0 0
BITMAP
2100
6300
6100
0000
FB80
7300
3E00
1C00
1C00
1600
2300
F780
ENDCHAR
STARTCHAR 1E8E
ENCODING 7822
SWIDTH 611 0
DWIDTH 11 0
BBX 10 15 1 0
BITMAP
1800
1800
1800
0000
E3C0
7180
3100
3B00
1A00
0E00
0C00
0C00
0C00
0C00
1E00
ENDCHAR
STARTCHAR 1E8F
ENCODING 7823
SWIDTH 500 0
DWIDTH 9 0
BBX 10 16 -1 -4
BITMAP
0400
0C00
0C00
0000
79C0
3080
1980
1900
0F00
0E00
0E00
0600
0400
0C00
7800
F000
ENDCHAR
STARTCHAR 1E90
ENCODING 7824
SWIDTH 555 0
DWIDTH 10 0
BBX 9 16 0 0
BITMAP
0C00
0E00
1E00
3300
0000
7F80
4300
4700
0600
0E00
0C00
1800
3800
3080
7080
FF80
ENDCHAR
STARTCHAR 1E91
ENCODING 7825
SWIDTH 444 0
DWIDTH 8 0
BBX 7 13 1 0
BITMAP
10
38
6C
C4
00
FE
8C
98
38
30
62
E2
FE
ENDCHAR
STARTCHAR 1E92
ENCODING 7826
SWIDTH 555 0
DWIDTH 10 0
BBX 9 15 0 -4
BITMAP
7F80
4300
4700
0600
0E00
0C00
1800
3800
3080
7080
FF80
0000
0800
1800
0800
ENDCHAR
STARTCHAR 1E93
ENCODING 7827
SWIDTH 444 0
DWIDTH 8 0
BBX 7 12 1 -4
BITMAP
FE
8C
98
38
30
62
E2
FE
00
20
20
20
ENDCHAR
STARTCHAR 1E94
ENCODING 7828
SWIDTH 555 0
DWIDTH 10 0
BBX 9 14 0 -3
BITMAP
7F80
4300
4700
0600
0E00
0C00
1800
3800
3080
7080
FF80
0000
0000
7F80
ENDCHAR
STARTCHAR 1E95
ENCODING 7829
SWIDTH 444 0
DWIDTH 8 0
BBX 8 11 0 -3
BITMAP
7F
46
4C
1C
18
31
71
7F
00
00
FF
ENDCHAR
STARTCHAR 1E96
ENCODING 7830
SWIDTH 555 0
DWIDTH 10 0
BBX 9 17 1 -3
BITMAP
6000
E000
6000
6000
6000
6000
6600
7F00
7300
6300
6300
6300
6300
F780
0000
0000
7F00
ENDCHAR
STARTCHAR 1E97
ENCODING 7831
SWIDTH 388 0
DWIDTH 7 0
BBX 7 14 0 0
BITMAP
C6
86
84
20
60
60
FC
60
60
60
60
64
7C
30
ENDCHAR
STARTCHAR 1E98
ENCODING 7832
SWIDTH 722 0
DWIDTH 13 0
BBX 13 13 0 0
BITMAP
0300
0500
0500
0300
0000
F238
6310
3320
35A0
35A0
18E0
18C0
18C0
ENDCHAR
STARTCHAR 1E99
ENCODING 7833
SWIDTH 500 0
DWIDTH 9 0
BBX 10 17 -1 -4
BITMAP
0600
0A00
0A00
0600
0000
79C0
3080
1980
1900
0F00
0E00
0E00
0600
0400
0C00
7800
F000
ENDCHAR
STARTCHAR 1EA0
ENCODING 7840
SWIDTH 611 0
DWIDTH 11 0
BBX 11 15 0 -4
BITMAP
0600
0E00
0E00
0B00
1300
1300
3F80
2180
21C0
60C0
F1E0
0000
0C00
0C00
0C00
ENDCHAR
STARTCHAR 1EA1
ENCODING 7841
SWIDTH 500 0
DWIDTH 9 0
BBX 8 12 1 -4
BITMAP
3C
66
C6
1E
66
C6
CF
76
00
20
30
20
ENDCHAR
STARTCHAR 1EA2
ENCODING 7842
SWIDTH 611 0
DWIDTH 11 0
BBX 11 16 0 0
BITMAP
0600
0E00
0200
0400
0200
0600
0E00
0E00
0B00
1300
1300
3F80
2180
21C0
60C0
F1E0
ENDCHAR
STARTCHAR 1EA3
ENCODING 7843
SWIDTH 500 0
DWIDTH 9 0
BBX 8 13 1 0
BITMAP
18
38
18
10
08
3C
66
C6
1E
66
C6
CF
76
ENDCHAR
STARTCHAR 1EA4
ENCODING 7844
SWIDTH 611 0
DWIDTH 11 0
BBX 11 19 0 0
BITMAP
0300
0780
0C00
0C00
0E00
1F00
1100
0080
0600
0E00
0E00
0B00
1300
1300
3F80
2180
21C0
60C0
F1E0
ENDCHAR
STARTCHAR 1EA5
ENCODING 7845
SWIDTH 500 0
DWIDTH 9 0
BBX 8 17 1 0
BITMAP
0C
18
10
20
10
38
6C
C6
00
3C
66
C6
1E
66
C6
CF
76
ENDCHAR
STARTCHAR 1EA6
ENCODING 7846
SWIDTH 611 0
DWIDTH 11 0
BBX 11 19 0 0
BITMAP
1800
1C00
0600
0600
0E00
1F00
1100
0080
0600
0E00
0E00
0B00
1300
1300
3F80
2180
21C0
60C0
F1E0
ENDCHAR
STARTCHAR 1EA7
ENCODING 7847
SWIDTH 500 0
DWIDTH 9 0
BBX 8 17 1 0
BITMAP
60
30
10
08
10
38
6C
C6
00
3C
66
C6
1E
66
C6
CF
76
ENDCHAR
STARTCHAR 1EA8
ENCODING 7848
SWIDTH 611 0
DWIDTH 11 0
BBX 11 19 0 0
BITMAP
0600
0A00
0400
0600
0E00
1F00
1100
0080
0600
0E00
0E00
0B00
1300
1300
3F80
2180
21C0
60C0
F1E0
ENDCHAR
STARTCHAR 1EA9
ENCODING 7849
SWIDTH 500 0
DWIDTH 9 0
BBX 8 17 1 0
BITMAP
18
28
10
18
10
38
6C
C6
00
3C
66
C6
1E
66
C6
CF
76
ENDCHAR
STARTCHAR 1EAA
ENCODING 7850
SWIDTH 611 0
DWIDTH 11 0
BBX 11 18 0 0
BITMAP
1C80
1F00
2600
0E00
1F00
1100
0080
0600
0E00
0E00
0B00
1300
1300
3F80
2180
21C0
60C0
F1E0
ENDCHAR
STARTCHAR 1EAB
ENCODING 7851
SWIDTH 500 0
DWIDTH 9 0
BBX 8 16 1 0
BITMAP
72
FC
00
10
38
6C
C6
00
3C
66
C6
1E
66
C6
CF
76
ENDCHAR
STARTCHAR 1EAC
ENCODING 7852
SWIDTH 611 0
DWIDTH 11 0
BBX 11 20 0 -4
BITMAP
0400
0E00
1F00
1100
0080
0600
0E00
0E00
0B00
1300
1300
3F80
2180
21C0
60C0
F1E0
0000
0C00
0C00
0C00
ENDCHAR
STARTCHAR 1EAD
ENCODING 7853
SWIDTH 500 0
DWIDTH 9 0
BBX 8 17 1 -4
BITMAP
10
38
6C
C6
00
3C
66
C6
1E
66
C6
CF
76
00
20
30
20
ENDCHAR
STARTCHAR 1EAE
ENCODING 7854
SWIDTH 611 0
DWIDTH 11 0
BBX 11 19 0 0
BITMAP
0100
0380
0600
2D00
1180
1F00
0E00
0000
0600
0E00
0E00
0B00
1300
1300
3F80
2180
21C0
60C0
F1E0
ENDCHAR
STARTCHAR 1EAF
ENCODING 7855
SWIDTH 500 0
DWIDTH 9 0
BBX 8 16 1 0
BITMAP
0C
1C
18
B4
46
7C
38
00
3C
66
C6
1E
66
C6
CF
76
ENDCHAR
STARTCHAR 1EB0
ENCODING 7856
SWIDTH 611 0
DWIDTH 11 0
BBX 11 19 0 0
BITMAP
1000
1800
0C00
2300
1180
1F00
0E00
0000
0600
0E00
0E00
0B00
1300
1300
3F80
2180
21C0
60C0
F1E0
ENDCHAR
STARTCHAR 1EB1
ENCODING 7857
SWIDTH 500 0
DWIDTH 9 0
BBX 8 16 1 0
BITMAP
60
30
10
8C
46
7C
38
00
3C
66
C6
1E
66
C6
CF
76
ENDCHAR
STARTCHAR 1EB2
ENCODING 7858
SWIDTH 611 0
DWIDTH 11 0
BBX 11 19 0 0
BITMAP
0600
0E00
0200
2500
1380
1F00
0E00
0000
0600
0E00
0E00
0B00
1300
1300
3F80
2180
21C0
60C0
F1E0
ENDCHAR
STARTCHAR 1EB3
ENCODING 7859
SWIDTH 500 0
DWIDTH 9 0
BBX 8 16 1 0
BITMAP
18
38
18
94
4E
7C
38
00
3C
66
C6
1E
66
C6
CF
76
ENDCHAR
STARTCHAR 1EB4
ENCODING 7860
SWIDTH 611 0
DWIDTH 11 0
BBX 11 19 0 0
BITMAP
0080
0C80
1F00
2700
1180
1F00
0E00
0000
0600
0E00
0E00
0B00
1300
1300
3F80
2180
21C0
60C0
F1E0
ENDCHAR
STARTCHAR 1EB5
ENCODING 7861
SWIDTH 500 0
DWIDTH 9 0
BBX 8 15 1 0
BITMAP
72
FC
84
46
7C
38
00
3C
66
C6
1E
66
C6
CF
76
ENDCHAR
STARTCHAR 1EB6
ENCODING 7862
SWIDTH 611 0
DWIDTH 11 0
BBX 11 20 0 -4
BITMAP
2100
1180
1F00
0E00
0000
0600
0E00
0E00
0B00
1300
1300
3F80
2180
21C0
60C0
F1E0
0000
0C00
0C00
0C00
ENDCHAR
STARTCHAR 1EB7
ENCODING 7863
SWIDTH 500 0
DWIDTH 9 0
BBX 8 17 1 -4
BITMAP
84
46
7C
38
00
3C
66
C6
1E
66
C6
CF
76
00
20
30
20
ENDCHAR
STARTCHAR 1EB8
ENCODING 7864
SWIDTH 500 0
DWIDTH 9 0
BBX 9 15 0 -4
BITMAP
FF00
3100
3100
3000
3000
3F00
3000
3000
3080
3080
FF80
0000
0800
1800
1800
ENDCHAR
STARTCHAR 1EB9
ENCODING 7865
SWIDTH 500 0
DWIDTH 9 0
BBX 7 12 1 -4
BITMAP
3C
46
C6
FE
C0
C0
62
3C
00
30
30
30
ENDCHAR
STARTCHAR 1EBA
ENCODING 7866
SWIDTH 500 0
DWIDTH 9 0
BBX 9 16 0 0
BITMAP
0C00
0C00
1400
0800
0400
FF00
3100
3100
3000
3000
3F00
3000
3000
3080
3080
FF80
ENDCHAR
STARTCHAR 1EBB
ENCODING 7867
SWIDTH 500 0
DWIDTH 9 0
BBX 7 13 1 0
BITMAP
18
38
08
18
00
3C
46
C6
FE
C0
C0
62
3C
ENDCHAR
STARTCHAR 1EBC
ENCODING 7868
SWIDTH 500 0
DWIDTH 9 0
BBX 9 15 0 0
BITMAP
1900
3F00
4E00
0000
FF00
3100
3100
3000
3000
3F00
3000
3000
3080
3080
FF80
ENDCHAR
STARTCHAR 1EBD
ENCODING 7869
SWIDTH 500 0
DWIDTH 9 0
BBX 7 12 1 0
BITMAP
72
FC
00
00
3C
46
C6
FE
C0
C0
62
3C
ENDCHAR
STARTCHAR 1EBE
ENCODING 7870
SWIDTH 500 0
DWIDTH 9 0
BBX 9 19 0 0
BITMAP
0600
0F00
1C00
1800
1C00
1E00
2300
0000
FF00
3100
3100
3000
3000
3F00
3000
3000
3080
3080
FF80
ENDCHAR
STARTCHAR 1EBF
ENCODING 7871
SWIDTH 500 0
DWIDTH 9 0
BBX 7 17 1 0
BITMAP
0C
1E
18
30
18
38
6C
42
00
3C
46
C6
FE
C0
C0
62
3C
ENDCHAR
STARTCHAR 1EC0
ENCODING 7872
SWIDTH 500 0
DWIDTH 9 0
BBX 9 19 0 0
BITMAP
3000
3800
0C00
0C00
1C00
1E00
2300
0000
FF00
3100
3100
3000
3000
3F00
3000
3000
3080
3080
FF80
ENDCHAR
STARTCHAR 1EC1
ENCODING 7873
SWIDTH 500 0
DWIDTH 9 0
BBX 7 17 1 0
BITMAP
70
30
18
08
18
38
6C
42
00
3C
46
C6
FE
C0
C0
62
3C
ENDCHAR
STARTCHAR 1EC2
ENCODING 7874
SWIDTH 500 0
DWIDTH 9 0
BBX 9 19 0 0
BITMAP
0C00
1400
0C00
0C00
1C00
1E00
2300
0000
FF00
3100
3100
3000
3000
3F00
3000
3000
3080
3080
FF80
ENDCHAR
STARTCHAR 1EC3
ENCODING 7875
SWIDTH 500 0
DWIDTH 9 0
BBX 7 17 1 0
BITMAP
18
38
18
08
18
38
6C
42
00
3C
46
C6
FE
C0
C0
62
3C
ENDCHAR
STARTCHAR 1EC4
ENCODING 7876
SWIDTH 500 0
DWIDTH 9 0
BBX 9 18 0 0
BITMAP
3D00
3E00
4C00
1C00
1E00
2300
0000
FF00
3100
3100
3000
3000
3F00
3000
3000
3080
3080
FF80
ENDCHAR
STARTCHAR 1EC5
ENCODING 7877
SWIDTH 500 0
DWIDTH 9 0
BBX 7 16 1 0
BITMAP
72
FC
00
18
38
6C
42
00
3C
46
C6
FE
C0
C0
62
3C
ENDCHAR
STARTCHAR 1EC6
ENCODING 7878
SWIDTH 500 0
DWIDTH 9 0
BBX 9 20 0 -4
BITMAP
0800
1C00
1E00
2300
0000
FF00
3100
3100
3000
3000
3F00
3000
3000
3080
3080
FF80
0000
0800
1800
1800
ENDCHAR
STARTCHAR 1EC7
ENCODING 7879
SWIDTH 500 0
DWIDTH 9 0
BBX 7 17 1 -4
BITMAP
18
38
6C
42
00
3C
46
C6
FE
C0
C0
62
3C
00
30
30
30
ENDCHAR
STARTCHAR 1EC8
ENCODING 7880
SWIDTH 333 0
DWIDTH 6 0
BBX 4 16 1 0
BITMAP
20
60
20
60
00
F0
60
60
60
60
60
60
60
60
60
F0
ENDCHAR
STARTCHAR 1EC9
ENCODING 7881
SWIDTH 277 0
DWIDTH 5 0
BBX 4 13 1 0
BITMAP
60
60
20
60
00
60
E0
60
60
60
60
60
F0
ENDCHAR
STARTCHAR 1ECA
ENCODING 7882
SWIDTH 333 0
DWIDTH 6 0
BBX 4 15 1 -4
BITMAP
F0
60
60
60
60
60
60
60
60
60
F0
00
40
C0
C0
ENDCHAR
STARTCHAR 1ECB
ENCODING 7883
SWIDTH 277 0
DWIDTH 5 0
BBX 4 16 1 -4
BITMAP
30
70
00
00
60
E0
60
60
60
60
60
F0
00
40
C0
C0
ENDCHAR
STARTCHAR 1ECC
ENCODING 7884
SWIDTH 611 0
DWIDTH 11 0
BBX 10 15 0 -4
BITMAP
1E00
2180
4080
C0C0
C0C0
C0C0
C0C0
C0C0
4080
6100
1E00
0000
0C00
0C00
0C00
ENDCHAR
STARTCHAR 1ECD
ENCODING 7885
SWIDTH 500 0
DWIDTH 9 0
BBX 7 12 1 -4
BITMAP
38
44
C6
C6
C6
C6
44
38
00
10
30
10
ENDCHAR
STARTCHAR 1ECE
ENCODING 7886
SWIDTH 611 0
DWIDTH 11 0
BBX 10 16 0 0
BITMAP
0600
0E00
0200
0400
0200
1E00
2180
4080
C0C0
C0C0
C0C0
C0C0
C0C0
4080
6100
1E00
ENDCHAR
STARTCHAR 1ECF
ENCODING 7887
SWIDTH 500 0
DWIDTH 9 0
BBX 7 13 1 0
BITMAP
18
18
08
18
00
38
44
C6
C6
C6
C6
44
38
ENDCHAR
STARTCHAR 1ED0
ENCODING 7888
SWIDTH 611 0
DWIDTH 11 0
BBX 10 19 0 0
BITMAP
0300
0780
0E00
0C00
0E00
1F00
1180
0000
1E00
2180
4080
C0C0
C0C0
C0C0
C0C0
C0C0
4080
6100
1E00
ENDCHAR
STARTCHAR 1ED1
ENCODING 7889
SWIDTH 500 0
DWIDTH 9 0
BBX 7 17 1 0
BITMAP
0E
0C
18
10
18
3C
2C
42
00
38
44
C6
C6
C6
C6
44
38
ENDCHAR
STARTCHAR 1ED2
ENCODING 7890
SWIDTH 611 0
DWIDTH 11 0
BBX 10 19 0 0
BITMAP
1800
1C00
0600
0600
0E00
1F00
1180
0000
1E00
2180
4080
C0C0
C0C0
C0C0
C0C0
C0C0
4080
6100
1E00
ENDCHAR
STARTCHAR 1ED3
ENCODING 7891
SWIDTH 500 0
DWIDTH 9 0
BBX 7 17 1 0
BITMAP
70
30
18
08
18
3C
2C
42
00
38
44
C6
C6
C6
C6
44
38
ENDCHAR
STARTCHAR 1ED4
ENCODING 7892
SWIDTH 611 0
DWIDTH 11 0
BBX 10 19 0 0
BITMAP
0600
0A00
0400
0600
0E00
1F00
1180
0000
1E00
2180
4080
C0C0
C0C0
C0C0
C0C0
C0C0
4080
6100
1E00
ENDCHAR
STARTCHAR 1ED5
ENCODING 7893
SWIDTH 500 0
DWIDTH 9 0
BBX 7 17 1 0
BITMAP
18
18
08
18
18
3C
2C
42
00
38
44
C6
C6
C6
C6
44
38
ENDCHAR
STARTCHAR 1ED6
ENCODING 7894
SWIDTH 611 0
DWIDTH 11 0
BBX 10 18 0 0
BITMAP
1E80
1F00
2600
0E00
1F00
1180
0000
1E00
2180
4080
C0C0
C0C0
C0C0
C0C0
C0C0
4080
6100
1E00
ENDCHAR
STARTCHAR 1ED7
ENCODING 7895
SWIDTH 500 0
DWIDTH 9 0
BBX 7 16 1 0
BITMAP
72
7C
80
18
3C
2C
42
00
38
44
C6
C6
C6
C6
44
38
ENDCHAR
STARTCHAR 1ED8
ENCODING 7896
SWIDTH 611 0
DWIDTH 11 0
BBX 10 20 0 -4
BITMAP
0400
0E00
1F00
1180
0000
1E00
2180
4080
C0C0
C0C0
C0C0
C0C0
C0C0
4080
6100
1E00
0000
0C00
0C00
0C00
ENDCHAR
STARTCHAR 1ED9
ENCODING 7897
SWIDTH 500 0
DWIDTH 9 0
BBX 7 17 1 -4
BITMAP
18
3C
2C
42
00
38
44
C6
C6
C6
C6
44
38
00
10
30
10
ENDCHAR
STARTCHAR 1EDA
ENCODING 7898
SWIDTH 611 0
DWIDTH 11 0
BBX 11 16 0 0
BITMAP
0200
0380
0600
0C40
00E0
1FC0
2180
4080
C0C0
C0C0
C0C0
C0C0
C0C0
4080
6100
1E00
ENDCHAR
STARTCHAR 1EDB
ENCODING 7899
SWIDTH 611 0
DWIDTH 11 0
BBX 10 13 1 0
BITMAP
0E00
0C00
1800
10C0
01C0
3E80
4700
C300
C300
C300
C300
6200
3C00
ENDCHAR
STARTCHAR 1EDC
ENCODING 7900
SWIDTH 611 0
DWIDTH 11 0
BBX 11 16 0 0
BITMAP
1000
1800
2C00
0640
00E0
1FC0
2180
4080
C0C0
C0C0
C0C0
C0C0
C0C0
4080
6100
1E00
ENDCHAR
STARTCHAR 1EDD
ENCODING 7901
SWIDTH 611 0
DWIDTH 11 0
BBX 10 13 1 0
BITMAP
3000
7000
1800
08C0
01C0
3E80
4700
C300
C300
C300
C300
6200
3C00
ENDCHAR
STARTCHAR 1EDE
ENCODING 7902
SWIDTH 611 0
DWIDTH 11 0
BBX 11 16 0 0
BITMAP
0600
0E00
0200
0440
02E0
1FC0
2180
4080
C0C0
C0C0
C0C0
C0C0
C0C0
4080
6100
1E00
ENDCHAR
STARTCHAR 1EDF
ENCODING 7903
SWIDTH 611 0
DWIDTH 11 0
BBX 10 13 1 0
BITMAP
1800
1400
0800
08C0
01C0
3E80
4700
C300
C300
C300
C300
6200
3C00
ENDCHAR
STARTCHAR 1EE0
ENCODING 7904
SWIDTH 611 0
DWIDTH 11 0
BBX 11 15 0 0
BITMAP
0880
1F80
2740
00E0
1FC0
2180
4080
C0C0
C0C0
C0C0
C0C0
C0C0
4080
6100
1E00
ENDCHAR
STARTCHAR 1EE1
ENCODING 7905
SWIDTH 611 0
DWIDTH 11 0
BBX 10 12 1 0
BITMAP
3300
7C00
00C0
01C0
3E80
4700
C300
C300
C300
C300
6200
3C00
ENDCHAR
STARTCHAR 1EE2
ENCODING 7906
SWIDTH 611 0
DWIDTH 11 0
BBX 11 17 0 -4
BITMAP
0040
00E0
1FC0
2180
4080
C0C0
C0C0
C0C0
C0C0
C0C0
4080
6100
1E00
0000
0C00
0C00
0800
ENDCHAR
STARTCHAR 1EE3
ENCODING 7907
SWIDTH 611 0
DWIDTH 11 0
BBX 10 14 1 -4
BITMAP
00C0
01C0
3E80
4700
C300
C300
C300
C300
6200
3C00
0000
1000
1000
1000
ENDCHAR
STARTCHAR 1EE4
ENCODING 7908
SWIDTH 666 0
DWIDTH 12 0
BBX 10 15 1 -4
BITMAP
F1C0
6080
6080
6080
6080
6080
6080
6080
6080
3100
1E00
0000
0800
0800
0800
ENDCHAR
STARTCHAR 1EE5
ENCODING 7909
SWIDTH 555 0
DWIDTH 10 0
BBX 10 12 0 -4
BITMAP
E380
6180
6180
6180
6180
6180
7FC0
3980
0000
0800
0800
0800
ENDCHAR
STARTCHAR 1EE6
ENCODING 7910
SWIDTH 666 0
DWIDTH 12 0
BBX 10 16 1 0
BITMAP
0400
0A00
0400
0400
0000
F1C0
6080
6080
6080
6080
6080
6080
6080
6080
3100
1E00
ENDCHAR
STARTCHAR 1EE7
ENCODING 7911
SWIDTH 555 0
DWIDTH 10 0
BBX 10 13 0 0
BITMAP
0C00
0A00
0400
0400
0000
E380
6180
6180
6180
6180
6180
7FC0
3980
ENDCHAR
STARTCHAR 1EE8
ENCODING 7912
SWIDTH 722 0
DWIDTH 13 0
BBX 12 16 1 0
BITMAP
0200
0700
0600
0830
0070
F1E0
60C0
6080
6080
6080
6080
6080
6080
6080
3100
1E00
ENDCHAR
STARTCHAR 1EE9
ENCODING 7913
SWIDTH 666 0
DWIDTH 12 0
BBX 12 13 0 0
BITMAP
0700
0600
0C00
0830
E070
63A0
61C0
6180
6180
6180
6180
7FC0
3980
ENDCHAR
STARTCHAR 1EEA
ENCODING 7914
SWIDTH 722 0
DWIDTH 13 0
BBX 12 16 1 0
BITMAP
1000
3800
1C00
0630
0070
F1E0
60C0
6080
6080
6080
6080
6080
6080
6080
3100
1E00
ENDCHAR
STARTCHAR 1EEB
ENCODING 7915
SWIDTH 666 0
DWIDTH 12 0
BBX 12 13 0 0
BITMAP
1800
3800
0C00
0430
E070
63A0
61C0
6180
6180
6180
6180
7FC0
3980
ENDCHAR
STARTCHAR 1EEC
ENCODING 7916
SWIDTH 722 0
DWIDTH 13 0
BBX 12 16 1 0
BITMAP
0600
0A00
0600
0430
0070
F1E0
60C0
6080
6080
6080
6080
6080
6080
6080
3100
1E00
ENDCHAR
STARTCHAR 1EED
ENCODING 7917
SWIDTH 666 0
DWIDTH 12 0
BBX 12 13 0 0
BITMAP
0C00
0A00
0400
0430
E070
63A0
61C0
6180
6180
6180
6180
7FC0
3980
ENDCHAR
STARTCHAR 1EEE
ENCODING 7918
SWIDTH 722 0
DWIDTH 13 0
BBX 12 15 1 0
BITMAP
1880
1F00
2730
0070
F1E0
60C0
6080
6080
6080
6080
6080
6080
6080
3100
1E00
ENDCHAR
STARTCHAR 1EEF
ENCODING 7919
SWIDTH 666 0
DWIDTH 12 0
BBX 12 12 0 0
BITMAP
1980
3E00
0030
E070
63A0
61C0
6180
6180
6180
6180
7FC0
3980
ENDCHAR
STARTCHAR 1EF0
ENCODING 7920
SWIDTH 722 0
DWIDTH 13 0
BBX 12 17 1 -4
BITMAP
0030
0070
F1E0
60C0
6080
6080
6080
6080
6080
6080
6080
3100
1E00
0000
0800
0C00
0800
ENDCHAR
STARTCHAR 1EF1
ENCODING 7921
SWIDTH 666 0
DWIDTH 12 0
BBX 12 14 0 -4
BITMAP
0030
E070
63A0
61C0
6180
6180
6180
6180
7FC0
3980
0000
0800
0800
0800
ENDCHAR
STARTCHAR 1EF2
ENCODING 7922
SWIDTH 611 0
DWIDTH 11 0
BBX 10 16 1 0
BITMAP
2000
3000
5800
0C00
0000
E3C0
7180
3100
3B00
1A00
0E00
0C00
0C00
0C00
0C00
1E00
ENDCHAR
STARTCHAR 1EF3
ENCODING 7923
SWIDTH 500 0
DWIDTH 9 0
BBX 10 17 -1 -4
BITMAP
1C00
0C00
0600
0200
0000
79C0
3080
1980
1900
0F00
0E00
0E00
0600
0400
0C00
7800
F000
ENDCHAR
STARTCHAR 1EF4
ENCODING 7924
SWIDTH 611 0
DWIDTH 11 0
BBX 10 15 1 -4
BITMAP
E3C0
7180
3100
3B00
1A00
0E00
0C00
0C00
0C00
0C00
1E00
0000
1800
1800
1000
ENDCHAR
STARTCHAR 1EF5
ENCODING 7925
SWIDTH 500 0
DWIDTH 9 0
BBX 10 12 -1 -4
BITMAP
79C0
3080
1980
1900
0F00
0E00
0E00
0600
0400
0D00
7900
F100
ENDCHAR
STARTCHAR 1EF6
ENCODING 7926
SWIDTH 611 0
DWIDTH 11 0
BBX 10 16 1 0
BITMAP
0C00
1C00
0400
0800
0400
E3C0
7180
3100
3B00
1A00
0E00
0C00
0C00
0C00
0C00
1E00
ENDCHAR
STARTCHAR 1EF7
ENCODING 7927
SWIDTH 500 0
DWIDTH 9 0
BBX 10 17 -1 -4
BITMAP
0600
0600
0200
0600
0000
79C0
3080
1980
1900
0F00
0E00
0E00
0600
0400
0C00
7800
F000
ENDCHAR
STARTCHAR 1EF8
ENCODING 7928
SWIDTH 611 0
DWIDTH 11 0
BBX 10 15 1 0
BITMAP
1100
3F00
4E00
0000
E3C0
7180
3100
3B00
1A00
0E00
0C00
0C00
0C00
0C00
1E00
ENDCHAR
STARTCHAR 1EF9
ENCODING 7929
SWIDTH 500 0
DWIDTH 9 0
BBX 10 16 -1 -4
BITMAP
1C80
1F00
2000
0000
79C0
3080
1980
1900
0F00
0E00
0E00
0600
0400
0C00
7800
F000
ENDCHAR
STARTCHAR 2011
ENCODING 8209
SWIDTH 333 0
DWIDTH 6 0
BBX 6 1 0 4
BITMAP
FC
ENDCHAR
STARTCHAR 2013
ENCODING 8211
SWIDTH 500 0
DWIDTH 9 0
BBX 8 1 0 4
BITMAP
FF
ENDCHAR
STARTCHAR 2014
ENCODING 8212
SWIDTH 777 0
DWIDTH 14 0
BBX 14 1 0 4
BITMAP
FFFC
ENDCHAR
STARTCHAR 2018
ENCODING 8216
SWIDTH 277 0
DWIDTH 5 0
BBX 2 5 1 8
BITMAP
80
80
80
80
C0
ENDCHAR
STARTCHAR 2019
ENCODING 8217
SWIDTH 277 0
DWIDTH 5 0
BBX 2 5 2 8
BITMAP
C0
40
40
40
40
ENDCHAR
STARTCHAR 201A
ENCODING 8218
SWIDTH 277 0
DWIDTH 5 0
BBX 2 5 2 -3
BITMAP
C0
40
40
40
40
ENDCHAR
STARTCHAR 201C
ENCODING 8220
SWIDTH 500 0
DWIDTH 9 0
BBX 7 5 1 8
BITMAP
82
84
84
86
C6
ENDCHAR
STARTCHAR 201D
ENCODING 8221
SWIDTH 500 0
DWIDTH 9 0
BBX 7 5 1 8
BITMAP
C6
C2
42
82
82
ENDCHAR
STARTCHAR 201E
ENCODING 8222
SWIDTH 500 0
DWIDTH 9 0
BBX 7 5 1 -3
BITMAP
C6
C2
42
82
82
ENDCHAR
STARTCHAR 2020
ENCODING 8224
SWIDTH 500 0
DWIDTH 9 0
BBX 7 13 1 0
BITMAP
10
30
10
FE
FC
10
10
38
10
10
10
10
10
ENDCHAR
STARTCHAR 2021
ENCODING 8225
SWIDTH 500 0
DWIDTH 9 0
BBX 7 13 1 0
BITMAP
18
30
10
FE
FE
10
38
10
FE
FE
10
18
10
ENDCHAR
STARTCHAR 2022
ENCODING 8226
SWIDTH 277 0
DWIDTH 5 0
BBX 3 5 1 3
BITMAP
E0
E0
E0
E0
E0
ENDCHAR
STARTCHAR 2026
ENCODING 8230
SWIDTH 833 0
DWIDTH 15 0
BBX 13 3 1 -1
BITMAP
E718
E738
C638
ENDCHAR
STARTCHAR 2030
ENCODING 8240
SWIDTH 1055 0
DWIDTH 19 0
BBX 17 11 1 0
BITMAP
704000
908000
898000
8B0000
920000
55C300
2A2480
1A2480
322480
222480
41C300
ENDCHAR
STARTCHAR 2039
ENCODING 8249
SWIDTH 333 0
DWIDTH 6 0
BBX 4 8 1 0
BITMAP
10
20
60
C0
C0
60
20
10
ENDCHAR
STARTCHAR 203A
ENCODING 8250
SWIDTH 333 0
DWIDTH 6 0
BBX 4 8 1 0
BITMAP
80
40
60
30
30
60
40
80
ENDCHAR
STARTCHAR 2044
ENCODING 8260
SWIDTH 611 0
DWIDTH 11 0
BBX 10 11 1 0
BITMAP
00C0
0180
0100
0200
0400
0C00
0800
1000
2000
6000
C000
ENDCHAR
STARTCHAR 20AC
ENCODING 8364
SWIDTH 500 0
DWIDTH 9 0
BBX 9 11 0 0
BITMAP
0F00
3180
3000
6000
FE00
6000
FC00
6000
3000
3180
1E00
ENDCHAR
STARTCHAR 2122
ENCODING 8482
SWIDTH 611 0
DWIDTH 11 0
BBX 11 4 0 7
BITMAP
FC40
B6C0
2740
75E0
ENDCHAR
STARTCHAR 2126
ENCODING 8486
SWIDTH 666 0
DWIDTH 12 0
BBX 10 11 1 0
BITMAP
1F00
6180
C0C0
C0C0
C0C0
C0C0
4080
4140
A240
F3C0
F3C0
ENDCHAR
STARTCHAR 2202
ENCODING 8706
SWIDTH 500 0
DWIDTH 9 0
BBX 7 13 1 0
BITMAP
78
8C
06
06
06
3E
4E
C6
C6
C6
C4
44
38
ENDCHAR
STARTCHAR 2205
ENCODING 8709
SWIDTH 666 0
DWIDTH 12 0
BBX 12 13 0 -1
BITMAP
0030
0F60
10C0
21E0
4120
4220
4620
4420
4820
7840
3080
6F00
C000
ENDCHAR
STARTCHAR 2206
ENCODING 8710
SWIDTH 611 0
DWIDTH 11 0
BBX 10 11 0 0
BITMAP
0400
0E00
0E00
1F00
1300
3300
2380
2180
61C0
40C0
FFC0
ENDCHAR
STARTCHAR 220F
ENCODING 8719
SWIDTH 666 0
DWIDTH 12 0
BBX 10 11 1 0
BITMAP
FFC0
6180
6180
6180
6180
6180
6180
6180
6180
6180
F3C0
ENDCHAR
STARTCHAR 2211
ENCODING 8721
SWIDTH 555 0
DWIDTH 10 0
BBX 9 11 0 0
BITMAP
7F80
7080
3080
1800
1C00
0C00
1800
1080
2080
7F80
FF80
ENDCHAR
STARTCHAR 2212
ENCODING 8722
SWIDTH 444 0
DWIDTH 8 0
BBX 7 1 0 4
BITMAP
FE
ENDCHAR
STARTCHAR 2219
ENCODING 8729
SWIDTH 222 0
DWIDTH 4 0
BBX 3 3 0 5
BITMAP
E0
E0
C0
ENDCHAR
STARTCHAR 221A
ENCODING 8730
SWIDTH 611 0
DWIDTH 11 0
BBX 11 13 0 0
BITMAP
0060
0080
0080
0080
E080
E100
3100
3100
1B00
1A00
0E00
0E00
0400
ENDCHAR
STARTCHAR 221E
ENCODING 8734
SWIDTH 666 0
DWIDTH 12 0
BBX 10 4 1 3
BITMAP
7180
9E40
9E40
6380
ENDCHAR
STARTCHAR 222B
ENCODING 8747
SWIDTH 333 0
DWIDTH 6 0
BBX 10 17 -3 -4
BITMAP
0380
04C0
0C00
0C00
0C00
0C00
0C00
0C00
0C00
0C00
0C00
0C00
0C00
0C00
4C00
F800
7000
ENDCHAR
STARTCHAR 2248
ENCODING 8776
SWIDTH 444 0
DWIDTH 8 0
BBX 8 5 0 2
BITMAP
7F
80
32
4F
80
ENDCHAR
STARTCHAR 2260
ENCODING 8800
SWIDTH 444 0
DWIDTH 8 0
BBX 8 8 0 1
BITMAP
06
04
7F
98
18
7F
A0
60
ENDCHAR
STARTCHAR 2264
ENCODING 8804
SWIDTH 444 0
DWIDTH 8 0
BBX 8 7 0 2
BITMAP
03
1E
70
F0
1E
07
FF
ENDCHAR
STARTCHAR 2265
ENCODING 8805
SWIDTH 444 0
DWIDTH 8 0
BBX 8 7 0 2
BITMAP
60
BC
0F
0E
78
40
FF
ENDCHAR
STARTCHAR 25CA
ENCODING 9674
SWIDTH 388 0
DWIDTH 7 0
BBX 7 11 0 0
BITMAP
10
38
38
4C
4C
C6
C4
68
68
30
30
ENDCHAR
STARTCHAR 25CC
ENCODING 9676
SWIDTH 555 0
DWIDTH 10 0
BBX 8 8 1 0
BITMAP
34
42
81
81
00
81
42
34
ENDCHAR
STARTCHAR 2C60
ENCODING 11360
SWIDTH 500 0
DWIDTH 9 0
BBX 8 11 1 0
BITMAP
F0
60
60
60
FC
60
FC
60
61
61
FF
ENDCHAR
STARTCHAR 2C61
ENCODING 11361
SWIDTH 333 0
DWIDTH 6 0
BBX 6 14 0 0
BITMAP
30
70
30
30
30
30
FC
30
FC
30
30
30
30
78
ENDCHAR
STARTCHAR 2C62
ENCODING 11362
SWIDTH 500 0
DWIDTH 9 0
BBX 9 11 0 0
BITMAP
7800
3000
3000
3000
7400
BC00
3000
3000
3080
3080
7F80
ENDCHAR
STARTCHAR A789
ENCODING 42889
SWIDTH 222 0
DWIDTH 4 0
BBX 3 8 1 0
BITMAP
E0
E0
C0
00
00
E0
E0
C0
ENDCHAR
STARTCHAR A78A
ENCODING 42890
SWIDTH 333 0
DWIDTH 6 0
BBX 6 4 0 2
BITMAP
FC
00
00
FC
ENDCHAR
STARTCHAR A78B
ENCODING 42891
SWIDTH 277 0
DWIDTH 5 0
BBX 3 8 1 6
BITMAP
60
E0
E0
C0
40
40
40
40
ENDCHAR
STARTCHAR A78C
ENCODING 42892
SWIDTH 277 0
DWIDTH 5 0
BBX 3 7 1 6
BITMAP
60
E0
E0
40
40
40
40
ENDCHAR
STARTCHAR F130
ENCODING 61744
SWIDTH 166 0
DWIDTH 3 0
BBX 3 3 0 -3
BITMAP
E0
20
20
ENDCHAR
STARTCHAR F131
ENCODING 61745
SWIDTH 166 0
DWIDTH 3 0
BBX 3 3 0 -3
BITMAP
E0
80
80
ENDCHAR
STARTCHAR F195
ENCODING 61845
SWIDTH 222 0
DWIDTH 4 0
BBX 4 4 0 9
BITMAP
C0
60
30
10
ENDCHAR
STARTCHAR F197
ENCODING 61847
SWIDTH 222 0
DWIDTH 4 0
BBX 4 4 0 9
BITMAP
30
60
40
80
ENDCHAR
STARTCHAR F1C8
ENCODING 61896
SWIDTH 333 0
DWIDTH 6 0
BBX 5 7 0 7
BITMAP
70
88
88
10
20
20
20
ENDCHAR
STARTCHAR F1E9
ENCODING 61929
SWIDTH 222 0
DWIDTH 4 0
BBX 3 8 1 0
BITMAP
E0
E0
C0
00
00
E0
E0
C0
ENDCHAR
STARTCHAR F1EA
ENCODING 61930
SWIDTH 333 0
DWIDTH 6 0
BBX 6 4 0 2
BITMAP
FC
00
00
FC
ENDCHAR
STARTCHAR F20E
ENCODING 61966
SWIDTH 333 0
DWIDTH 6 0
BBX 6 14 0 0
BITMAP
30
70
30
30
30
30
FC
30
FC
30
30
30
30
78
ENDCHAR
STARTCHAR F20F
ENCODING 61967
SWIDTH 500 0
DWIDTH 9 0
BBX 8 11 1 0
BITMAP
F0
60
60
60
FC
60
FC
60
61
61
FF
ENDCHAR
STARTCHAR F211
ENCODING 61969
SWIDTH 555 0
DWIDTH 10 0
BBX 12 12 1 -4
BITMAP
3D00
4300
C300
C300
C300
C300
7F00
3B00
0300
0330
0330
01E0
ENDCHAR
STARTCHAR F212
ENCODING 61970
SWIDTH 666 0
DWIDTH 12 0
BBX 13 15 1 -4
BITMAP
1E80
2380
4180
C180
C180
C180
C180
C180
6380
7F80
3980
0180
0198
0198
00E0
ENDCHAR
STARTCHAR F218
ENCODING 61976
SWIDTH 666 0
DWIDTH 12 0
BBX 10 11 1 0
BITMAP
F1C0
6080
6080
6080
6080
FFC0
6080
6080
6080
3100
1E00
ENDCHAR
STARTCHAR F219
ENCODING 61977
SWIDTH 666 0
DWIDTH 12 0
BBX 12 11 0 0
BITMAP
0600
0600
0F00
0B00
1B00
1180
1180
31C0
20C0
20C0
F1F0
ENDCHAR
STARTCHAR F21D
ENCODING 61981
SWIDTH 277 0
DWIDTH 5 0
BBX 3 7 1 6
BITMAP
60
E0
E0
40
40
40
40
ENDCHAR
STARTCHAR F21E
ENCODING 61982
SWIDTH 444 0
DWIDTH 8 0
BBX 6 8 1 0
BITMAP
78
CC
CC
08
10
30
30
78
ENDCHAR
STARTCHAR F21F
ENCODING 61983
SWIDTH 500 0
DWIDTH 9 0
BBX 8 11 1 0
BITMAP
F0
60
60
60
60
FC
60
60
61
61
FF
ENDCHAR
STARTCHAR F242
ENCODING 62018
SWIDTH 500 0
DWIDTH 9 0
BBX 9 11 0 0
BITMAP
7800
3000
3000
3000
7400
BC00
3000
3000
3080
3080
7F80
ENDCHAR
STARTCHAR F26A
ENCODING 62058
SWIDTH 277 0
DWIDTH 5 0
BBX 3 8 1 6
BITMAP
60
E0
E0
C0
40
40
40
40
ENDCHAR
STARTCHAR FB01
ENCODING 64257
SWIDTH 666 0
DWIDTH 12 0
BBX 10 13 1 0
BITMAP
1E00
24C0
61C0
6000
6000
FF80
6180
6180
6180
6180
6180
6180
FBC0
ENDCHAR
STARTCHAR FB02
ENCODING 64258
SWIDTH 666 0
DWIDTH 12 0
BBX 10 13 1 0
BITMAP
1F80
2580
6180
6180
6180
FD80
6180
6180
6180
6180
6180
6180
FBC0
ENDCHAR
ENDFONT
